<?xml version="1.0" standalone="no"?>
<!DOCTYPE svg PUBLIC "-//W3C//DTD SVG 20010904//EN"
 "http://www.w3.org/TR/2001/REC-SVG-20010904/DTD/svg10.dtd">
<svg version="1.0" xmlns="http://www.w3.org/2000/svg"
 width="300.000000pt" height="300.000000pt" viewBox="0 0 300.000000 300.000000"
 preserveAspectRatio="xMidYMid meet">
<metadata>
Created by potrace 1.11, written by Peter Selinger 2001-2013
</metadata>
<g transform="translate(0.000000,300.000000) scale(0.100000,-0.100000)"
fill="#000000" stroke="none">
<path d="M116 2980 c-99 -51 -139 -151 -99 -252 58 -151 257 -171 348 -35 31
46 34 56 31 113 -7 113 -71 179 -181 189 -48 4 -68 1 -99 -15z"/>
<path d="M602 2893 c-12 -2 -38 -20 -57 -40 -84 -86 -37 -231 81 -249 99 -15
184 66 170 163 -13 97 -89 146 -194 126z"/>
<path d="M1791 2828 c-110 -42 -196 -169 -189 -278 l2 -45 -64 -2 c-36 -2
-279 -4 -540 -5 l-475 -3 -79 -28 c-71 -25 -179 -87 -231 -134 -42 -37 -116
-136 -146 -195 -65 -128 -68 -157 -67 -633 0 -477 3 -511 61 -628 l34 -69 -24
-28 c-49 -58 -68 -118 -67 -210 0 -71 5 -93 26 -135 37 -70 90 -122 156 -153
l57 -27 605 -5 c527 -4 605 -7 608 -20 8 -39 55 -120 88 -149 19 -18 56 -42
82 -54 46 -21 59 -22 512 -24 501 -3 515 -2 618 50 96 48 174 139 217 252 27
70 27 220 0 290 -20 53 -76 148 -93 159 -6 4 4 29 24 63 33 55 66 133 81 190
3 15 8 228 9 473 3 504 1 519 -68 659 -59 120 -168 230 -288 289 -47 23 -94
44 -105 46 -82 15 -85 17 -97 65 -8 32 -25 59 -59 93 -53 52 -108 73 -176 65
-24 -2 -43 -1 -43 4 0 5 -22 31 -49 58 -86 86 -207 113 -320 69z"/>
</g>
</svg>
