<svg width="50" height="50" viewBox="0 0 50 50" fill="none" xmlns="http://www.w3.org/2000/svg">
<path d="M25 50C38.7847 50 50 38.7847 50 25C50 11.2153 38.7847 0 25 0C11.2153 0 0 11.2153 0 25C0 38.7847 11.2153 50 25 50ZM25 2C37.4082 2 48 12.5918 48 25C48 37.4082 37.4082 48 25 48C12.5918 48 2 37.4082 2 25C2 12.5918 12.5918 2 25 2Z" fill="white"/>
<path d="M11.6048 27.085H35.5333L29.2706 33.2957C28.6444 33.9168 28.6444 34.9131 29.2706 35.5342C29.5838 35.8447 29.9882 36 30.4057 36C30.8232 36 31.2277 35.8447 31.5408 35.5342L40.5303 26.6192C41.1566 25.9982 41.1566 25.0018 40.5303 24.3808L31.5408 15.4658C30.9146 14.8447 29.9099 14.8447 29.2837 15.4658C28.6574 16.0869 28.6574 17.0832 29.2837 17.7043L35.5463 23.915H11.6048C10.7176 23.915 10 24.6266 10 25.5065C10 26.3863 10.7176 27.085 11.6048 27.085Z" fill="white"/>
</svg>
