<svg width="110" height="50" viewBox="0 0 110 50" fill="none" xmlns="http://www.w3.org/2000/svg">
<circle cx="85" cy="25" r="23.5" fill="#51BEE6" stroke="white" stroke-width="3"/>
<g clip-path="url(#clip0)">
<path d="M107.968 25.1078C107.968 37.8012 97.6778 48.0918 84.984 48.0918C72.2902 48.0918 62 37.8012 62 25.1078C62 12.414 72.2902 2.12341 84.984 2.12341C97.6778 2.12341 107.968 12.414 107.968 25.1078V25.1078Z" fill="#51BEE6"/>
<path d="M84.984 48.0919C75.6307 48.0919 67.5831 42.5041 63.9948 34.4851C64.8998 33.366 66.2839 32.6495 67.8359 32.6495C70.001 32.6495 71.8391 34.0433 72.5053 35.9822C73.4086 35.5727 74.4108 35.3428 75.4672 35.3428C78.2835 35.3428 80.7201 36.9647 81.8969 39.3249C82.5485 39.0735 83.256 38.934 83.9964 38.934C86.8332 38.934 89.1966 40.959 89.7223 43.6419C90.1827 43.4999 90.6718 43.4231 91.1788 43.4231C92.904 43.4231 94.4215 44.3081 95.3047 45.6485C92.2011 47.2108 88.6957 48.0919 84.984 48.0919V48.0919Z" fill="#D3F1F5"/>
<path d="M81.0919 47.7633C73.4376 46.4573 67.0739 41.3665 63.9948 34.485C64.8998 33.3659 66.2839 32.6494 67.8359 32.6494C68.4444 32.6494 69.0274 32.7595 69.5657 32.961C69.5574 32.9646 69.5495 32.9682 69.5413 32.9718C68.2353 33.5556 67.7366 35.1455 68.425 36.3995C71.218 41.4867 75.6888 45.5225 81.0919 47.7633ZM75.0183 31.7515C76.7538 31.7515 78.1605 30.3445 78.1605 28.6089C78.1605 26.8737 76.7538 25.4667 75.0183 25.4667C73.2827 25.4667 71.876 26.8737 71.876 28.6089C71.876 30.3445 73.2827 31.7515 75.0183 31.7515ZM81.3031 32.6494C78.5758 32.6494 76.3651 34.8601 76.3651 37.5871C76.3651 40.3145 78.5758 42.5251 81.3031 42.5251C84.0301 42.5251 86.2412 40.3145 86.2412 37.5871C86.2408 34.8601 84.0301 32.6494 81.3031 32.6494ZM94.77 31.7515C92.5389 31.7515 90.7299 33.5602 90.7299 35.7917C90.7299 38.0228 92.5389 39.8315 94.77 39.8315C97.0015 39.8315 98.8102 38.0228 98.8102 35.7917C98.8105 33.5602 97.0015 31.7515 94.77 31.7515Z" fill="#ADE8F0"/>
<path d="M78.1606 28.6089C78.1606 29.1299 78.0333 29.6205 77.8092 30.0529C77.3763 30.277 76.8858 30.4047 76.3651 30.4047C74.6296 30.4047 73.2225 28.9976 73.2225 27.2625C73.2225 26.7414 73.3502 26.2509 73.5743 25.8184C74.0068 25.5943 74.4977 25.4667 75.0183 25.4667C76.7538 25.4667 78.1606 26.8737 78.1606 28.6089V28.6089ZM81.3032 32.6494C80.6391 32.6494 80.0062 32.781 79.4281 33.0188C79.1904 33.5971 79.0585 34.23 79.0585 34.8938C79.0585 37.6208 81.2691 39.8318 83.9965 39.8318C84.6602 39.8318 85.2931 39.6998 85.8715 39.4621C86.1092 38.8841 86.2412 38.2512 86.2412 37.5871C86.2408 34.8601 84.0302 32.6494 81.3032 32.6494V32.6494ZM94.7701 31.7515C94.2272 31.7515 93.709 31.8591 93.2361 32.0538C93.0417 32.5268 92.9338 33.0446 92.9338 33.5878C92.9338 35.8193 94.7425 37.628 96.9739 37.628C97.5172 37.628 98.035 37.52 98.5079 37.3257C98.7023 36.8524 98.8106 36.3346 98.8106 35.7917C98.8106 33.5602 97.0015 31.7515 94.7701 31.7515V31.7515Z" fill="#D3F1F5"/>
<path d="M100.702 24.1604L86.8481 15.1958C86.1271 14.7293 85.1922 15.3286 85.3151 16.1785L86.0071 20.9621C86.0943 21.5651 85.6266 22.1053 85.0174 22.1053H69C68.4477 22.1053 68 22.553 68 23.1053V26.8947C68 27.447 68.4477 27.8947 69 27.8947H85.0174C85.6266 27.8947 86.0943 28.4349 86.0071 29.0379L85.3151 33.8215C85.1922 34.6714 86.1271 35.2707 86.8481 34.8042L100.702 25.8396C101.311 25.4455 101.311 24.5545 100.702 24.1604Z" fill="#4ECEAD" stroke="white" stroke-width="2" stroke-miterlimit="5.20115" stroke-linejoin="bevel"/>
</g>
<circle r="23.5" transform="matrix(-1 0 0 1 25 25)" fill="#51BEE6" stroke="white" stroke-width="3"/>
<g clip-path="url(#clip1)">
<path d="M2.03198 25.1078C2.03198 37.8012 12.3222 48.0918 25.016 48.0918C37.7098 48.0918 48 37.8012 48 25.1078C48 12.414 37.7098 2.12341 25.016 2.12341C12.3222 2.12341 2.03198 12.414 2.03198 25.1078V25.1078Z" fill="#51BEE6"/>
<path d="M25.016 48.0919C34.3693 48.0919 42.4169 42.5041 46.0052 34.4851C45.1002 33.366 43.7161 32.6495 42.1641 32.6495C39.999 32.6495 38.1609 34.0433 37.4947 35.9822C36.5914 35.5727 35.5892 35.3428 34.5328 35.3428C31.7165 35.3428 29.2799 36.9647 28.1031 39.3249C27.4515 39.0735 26.744 38.934 26.0036 38.934C23.1668 38.934 20.8034 40.959 20.2777 43.6419C19.8173 43.4999 19.3282 43.4231 18.8212 43.4231C17.096 43.4231 15.5785 44.3081 14.6953 45.6485C17.7989 47.2108 21.3043 48.0919 25.016 48.0919V48.0919Z" fill="#D3F1F5"/>
<path d="M28.9081 47.7633C36.5624 46.4573 42.9261 41.3665 46.0052 34.485C45.1002 33.3659 43.7161 32.6494 42.1641 32.6494C41.5556 32.6494 40.9726 32.7595 40.4343 32.961C40.4426 32.9646 40.4505 32.9682 40.4587 32.9718C41.7647 33.5556 42.2634 35.1455 41.575 36.3995C38.782 41.4867 34.3112 45.5225 28.9081 47.7633ZM34.9817 31.7515C33.2462 31.7515 31.8395 30.3445 31.8395 28.6089C31.8395 26.8737 33.2462 25.4667 34.9817 25.4667C36.7173 25.4667 38.124 26.8737 38.124 28.6089C38.124 30.3445 36.7173 31.7515 34.9817 31.7515ZM28.6969 32.6494C31.4242 32.6494 33.6349 34.8601 33.6349 37.5871C33.6349 40.3145 31.4242 42.5251 28.6969 42.5251C25.9699 42.5251 23.7588 40.3145 23.7588 37.5871C23.7592 34.8601 25.9699 32.6494 28.6969 32.6494ZM15.23 31.7515C17.4611 31.7515 19.2701 33.5602 19.2701 35.7917C19.2701 38.0228 17.4611 39.8315 15.23 39.8315C12.9985 39.8315 11.1898 38.0228 11.1898 35.7917C11.1895 33.5602 12.9985 31.7515 15.23 31.7515Z" fill="#ADE8F0"/>
<path d="M31.8394 28.6089C31.8394 29.1299 31.9667 29.6205 32.1908 30.0529C32.6237 30.277 33.1142 30.4047 33.6349 30.4047C35.3704 30.4047 36.7775 28.9976 36.7775 27.2625C36.7775 26.7414 36.6498 26.2509 36.4257 25.8184C35.9932 25.5943 35.5023 25.4667 34.9817 25.4667C33.2462 25.4667 31.8394 26.8737 31.8394 28.6089V28.6089ZM28.6968 32.6494C29.3609 32.6494 29.9938 32.781 30.5719 33.0188C30.8096 33.5971 30.9415 34.23 30.9415 34.8938C30.9415 37.6208 28.7309 39.8318 26.0035 39.8318C25.3398 39.8318 24.7069 39.6998 24.1285 39.4621C23.8908 38.8841 23.7588 38.2512 23.7588 37.5871C23.7592 34.8601 25.9698 32.6494 28.6968 32.6494V32.6494ZM15.2299 31.7515C15.7728 31.7515 16.291 31.8591 16.7639 32.0538C16.9583 32.5268 17.0662 33.0446 17.0662 33.5878C17.0662 35.8193 15.2575 37.628 13.0261 37.628C12.4828 37.628 11.965 37.52 11.4921 37.3257C11.2977 36.8524 11.1894 36.3346 11.1894 35.7917C11.1894 33.5602 12.9985 31.7515 15.2299 31.7515V31.7515Z" fill="#D3F1F5"/>
<path d="M9.29752 24.1604L23.1519 15.1958C23.8729 14.7293 24.8078 15.3286 24.6849 16.1785L23.9929 20.9621C23.9057 21.5651 24.3734 22.1053 24.9826 22.1053H41C41.5523 22.1053 42 22.553 42 23.1053V26.8947C42 27.447 41.5523 27.8947 41 27.8947H24.9826C24.3734 27.8947 23.9057 28.4349 23.9929 29.0379L24.6849 33.8215C24.8078 34.6714 23.8729 35.2707 23.1519 34.8042L9.29752 25.8396C8.68852 25.4455 8.68852 24.5545 9.29752 24.1604Z" fill="#4ECEAD" stroke="white" stroke-width="2" stroke-miterlimit="5.20115" stroke-linejoin="bevel"/>
</g>
<defs>
<clipPath id="clip0">
<rect width="47" height="47" fill="white" transform="translate(62 1)"/>
</clipPath>
<clipPath id="clip1">
<rect width="47" height="47" fill="white" transform="matrix(-1 0 0 1 48 1)"/>
</clipPath>
</defs>
</svg>
