<svg width="32" height="32" viewBox="0 0 32 32" fill="none" xmlns="http://www.w3.org/2000/svg">
<g clip-path="url(#clip0)">
<path d="M20.7686 8.51385H11.2312C9.70887 8.51385 8.47034 9.75239 8.47034 11.2747V20.8122C8.47034 22.3345 9.70887 23.5734 11.2312 23.5734H20.7686C22.291 23.5734 23.5298 22.3348 23.5298 20.8122V11.2747C23.5298 9.75239 22.2913 8.51385 20.7686 8.51385ZM15.9999 21.0011C13.2665 21.0011 11.0426 18.7772 11.0426 16.0434C11.0426 13.31 13.2665 11.0861 15.9999 11.0861C18.7337 11.0861 20.9576 13.31 20.9576 16.0434C20.9576 18.7768 18.7333 21.0011 15.9999 21.0011ZM21.117 12.1111C20.4699 12.1111 19.9437 11.5849 19.9437 10.9382C19.9437 10.2914 20.4699 9.76522 21.117 9.76522C21.7637 9.76522 22.2899 10.2914 22.2899 10.9382C22.2899 11.5849 21.7637 12.1111 21.117 12.1111Z" fill="url(#paint0_linear)"/>
<path d="M15.9999 13.181C14.422 13.181 13.1371 14.4651 13.1371 16.0431C13.1371 17.6217 14.422 18.9062 15.9999 18.9062C17.5785 18.9062 18.8623 17.6217 18.8623 16.0431C18.8623 14.4655 17.5782 13.181 15.9999 13.181Z" fill="url(#paint1_linear)"/>
<path d="M15.9999 0.000305176C7.16367 0.000305176 -0.00012207 7.1641 -0.00012207 16.0003C-0.00012207 24.8365 7.16367 32.0003 15.9999 32.0003C24.8361 32.0003 31.9999 24.8365 31.9999 16.0003C31.9999 7.1641 24.8361 0.000305176 15.9999 0.000305176ZM25.6243 20.8122C25.6243 23.49 23.4464 25.6679 20.7686 25.6679H11.2311C8.55372 25.6679 6.37542 23.49 6.37542 20.8122V11.2747C6.37542 8.59729 8.55372 6.41899 11.2311 6.41899H20.7686C23.4464 6.41899 25.6243 8.59729 25.6243 11.2747V20.8122Z" fill="url(#paint2_linear)"/>
</g>
<defs>
<linearGradient id="paint0_linear" x1="16.0001" y1="8.51385" x2="16.0001" y2="23.5734" gradientUnits="userSpaceOnUse">
<stop stop-color="#4F5BD5"/>
<stop offset="0.298343" stop-color="#962FBF"/>
<stop offset="0.569061" stop-color="#D62976"/>
<stop offset="0.9999" stop-color="#FA7E1E"/>
<stop offset="1" stop-color="#FEDA75"/>
</linearGradient>
<linearGradient id="paint1_linear" x1="15.9997" y1="13.181" x2="15.9997" y2="18.9062" gradientUnits="userSpaceOnUse">
<stop stop-color="#4F5BD5"/>
<stop offset="0.298343" stop-color="#962FBF"/>
<stop offset="0.569061" stop-color="#D62976"/>
<stop offset="0.9998" stop-color="#EA5944"/>
<stop offset="0.9999" stop-color="#FA7E1E"/>
<stop offset="1" stop-color="#FEDA75"/>
</linearGradient>
<linearGradient id="paint2_linear" x1="15.9999" y1="0.000305176" x2="15.9999" y2="32.0003" gradientUnits="userSpaceOnUse">
<stop stop-color="#4F5BD5"/>
<stop offset="0.298343" stop-color="#962FBF"/>
<stop offset="0.569061" stop-color="#D62976"/>
<stop offset="0.867403" stop-color="#FA7E1E"/>
<stop offset="1" stop-color="#FEDA75"/>
</linearGradient>
<clipPath id="clip0">
<rect width="32" height="32" fill="white" transform="translate(-0.00012207 0.000305176)"/>
</clipPath>
</defs>
</svg>
