<svg width="90" height="90" viewBox="0 0 90 90" fill="none" xmlns="http://www.w3.org/2000/svg">
<circle cx="45" cy="45" r="43.5" fill="#C6EEFF" stroke="black" stroke-width="3"/>
<g clip-path="url(#clip0)">
<path d="M29.8272 23.9526H54.6421V27.6417H29.8272V23.9526Z" fill="#FC9E51"/>
<path d="M40.7908 19.5917H51.1063V36.9525H40.7908V19.5917Z" fill="#F4D553"/>
<path d="M40.7908 19.5917H44.5052V36.9525H40.7908V19.5917Z" fill="#FC9E51"/>
<path d="M55.4009 38.1705V42.6743H36.4967V38.1705C36.4967 35.985 38.2681 34.2141 40.4536 34.2141H51.443C53.6285 34.2141 55.4009 35.985 55.4009 38.1705V38.1705Z" fill="#FC9E51"/>
<path d="M55.4009 38.1705V42.6743H41.4201V38.1705C41.4201 35.985 43.191 34.2141 45.377 34.2141H51.443C53.6285 34.2141 55.4009 35.985 55.4009 38.1705V38.1705Z" fill="#F4D553"/>
<path d="M70.0739 64.169C70.0739 50.8449 59.2724 40.0435 45.9483 40.0435C32.6242 40.0435 21.8232 50.8449 21.8232 64.169C21.8232 77.4926 32.6247 76.904 45.9488 76.904C59.2724 76.904 70.0739 77.4926 70.0739 64.169V64.169Z" fill="#BDA4E0"/>
<path d="M43.5446 76.9065C31.3492 76.9248 21.8232 76.6813 21.8232 64.169C21.8232 50.8449 32.6237 40.0435 45.9478 40.0435C38.5067 40.0435 32.4739 50.8449 32.4739 64.169C32.4739 76.0238 37.2505 76.8643 43.5446 76.9065V76.9065Z" fill="#8E66B5"/>
<path d="M77.035 25.7975C77.035 28.6267 74.7414 30.9188 71.9122 30.9188C71.7976 30.9188 71.6846 30.9148 71.5725 30.9074C71.7128 31.373 71.7887 31.8689 71.7887 32.3812C71.7887 34.0391 70.9997 35.5139 69.7768 36.4497C68.9144 37.1097 67.8358 37.5025 66.666 37.5025C63.8368 37.5025 61.5447 35.2089 61.5447 32.3812V19.2148C61.5447 16.3861 63.8368 14.092 66.666 14.092C67.4728 14.092 68.2375 14.279 68.9159 14.6123C70.6174 15.4449 71.7887 17.193 71.7887 19.2148C71.7887 19.7271 71.7128 20.2215 71.5725 20.6877C71.6846 20.6797 71.7976 20.6758 71.9122 20.6758C74.7414 20.6758 77.035 22.9683 77.035 25.7975V25.7975Z" fill="#CDCFE0"/>
<path d="M35.7722 25.7975C35.7722 30.7204 32.5081 34.8821 28.0261 36.2359C27.0273 36.5384 25.9671 36.7006 24.8691 36.7006C18.8463 36.7006 13.9655 31.8184 13.9655 25.7975C13.9655 19.7762 18.8463 14.8939 24.8691 14.8939C25.9671 14.8939 27.0273 15.0561 28.0261 15.3586C32.5081 16.7129 35.7722 20.8741 35.7722 25.7975Z" fill="#2D9E7B"/>
<path d="M35.7722 25.7974C35.7722 30.7203 32.5081 34.882 28.0261 36.2359C23.5431 34.882 20.2805 30.7203 20.2805 25.7974C20.2805 20.874 23.5431 16.7129 28.0261 15.3585C32.5081 16.7129 35.7722 20.874 35.7722 25.7974Z" fill="#72D6B7"/>
<path d="M69.7768 36.4497C68.9144 37.1097 67.8358 37.5025 66.666 37.5025C63.8368 37.5025 61.5447 35.2089 61.5447 32.3812V19.2148C61.5447 16.3861 63.8368 14.092 66.666 14.092C67.4728 14.092 68.2375 14.279 68.9159 14.6123L68.9169 14.6137C63.7842 13.4692 60.597 22.6956 66.3005 25.2104C66.3005 25.2104 60.3411 32.9252 69.7768 36.4497V36.4497Z" fill="#ABAEC4"/>
<path d="M65.4133 49.8804C64.9714 50.1784 64.8554 50.7785 65.1539 51.2203C67.7411 55.0503 69.1083 59.5273 69.1083 64.1691C69.1083 67.9043 68.2296 70.5975 66.4225 72.4017C62.8489 75.9683 55.7708 75.9569 47.5744 75.9405C46.4998 75.9385 45.3973 75.9385 44.3227 75.9405C36.1258 75.9559 29.0482 75.9688 25.4746 72.4017C23.667 70.5971 22.7883 67.9043 22.7883 64.1691C22.7883 51.3984 33.1781 41.0085 45.9483 41.0085C52.1348 41.0085 57.9508 43.4177 62.3253 47.7921C62.7021 48.169 63.3131 48.169 63.69 47.7921C64.0674 47.4152 64.0674 46.8038 63.69 46.4269C61.5358 44.2726 59.0577 42.5597 56.3664 41.3304V38.1704C56.3664 35.6696 54.4904 33.5996 52.0718 33.2902V28.6073H54.6431C55.1762 28.6073 55.6081 28.1749 55.6081 27.6418V23.9532C55.6081 23.4201 55.1762 22.9876 54.6431 22.9876H52.0718V19.5916C52.0718 19.0585 51.6394 18.6266 51.1063 18.6266H40.7903C40.2572 18.6266 39.8253 19.0585 39.8253 19.5916V22.9876H36.4005C35.135 17.795 30.4451 13.9283 24.8686 13.9283C18.3241 13.9283 13 19.2529 13 25.7975C13 27.611 13.3987 29.3527 14.1852 30.9733C14.4183 31.4533 14.9955 31.6532 15.4751 31.4206C15.9551 31.1875 16.155 30.6103 15.9224 30.1307C15.2643 28.7744 14.9306 27.3164 14.9306 25.7975C14.9306 20.3177 19.3888 15.8594 24.8686 15.8594C30.3484 15.8594 34.8067 20.3177 34.8067 25.7975C34.8067 31.2773 30.3484 35.7355 24.8686 35.7355C22.1947 35.7355 19.6864 34.6887 17.8049 32.7878C17.43 32.409 16.8185 32.406 16.4396 32.7809C16.0608 33.1558 16.0578 33.7673 16.4327 34.1461C18.6792 36.4159 21.6755 37.6661 24.8686 37.6661C30.4451 37.6661 35.135 33.7995 36.4005 28.6068H39.8253V33.2897C37.4072 33.5996 35.5317 35.6696 35.5317 38.1704V41.3448C26.8815 45.3086 20.8577 54.048 20.8577 64.1686C20.8577 68.4428 21.9219 71.5829 24.1104 73.7679C28.2507 77.9003 35.6988 77.8879 44.3262 77.8711C45.3983 77.8691 46.4983 77.8691 47.5709 77.8711C48.0986 77.8721 48.6203 77.8731 49.1385 77.8731C57.0944 77.8731 63.8993 77.6479 67.7862 73.7679C69.9752 71.5829 71.0389 68.4428 71.0389 64.1686C71.0389 59.1405 69.5571 54.2895 66.7532 50.1392C66.4552 49.6979 65.8551 49.5818 65.4133 49.8804V49.8804ZM53.6776 24.9182V26.6762H52.0718V24.9182H53.6776ZM50.1407 20.5572V33.2485H41.7559V20.5572H50.1407ZM36.705 26.6762C36.7263 26.3861 36.7373 26.093 36.7373 25.7975C36.7373 25.5019 36.7263 25.2088 36.705 24.9182H39.8253V26.6762H36.705ZM37.4623 38.1704C37.4623 36.521 38.8042 35.1791 40.4536 35.1791H51.443C53.0934 35.1791 54.4358 36.521 54.4358 38.1704V40.5434C51.749 39.5803 48.8871 39.078 45.9483 39.078C42.9714 39.078 40.1139 39.6006 37.4623 40.5568V38.1704Z" fill="black"/>
<path d="M57.8615 24.9183C57.9949 24.9183 58.1303 24.8905 58.2603 24.832L67.0656 20.8335C67.5511 20.6128 67.7659 20.0405 67.5452 19.555C67.325 19.07 66.7527 18.8548 66.2672 19.0755L57.4618 23.074C56.9763 23.2947 56.7616 23.8665 56.9818 24.352C57.1435 24.708 57.4946 24.9183 57.8615 24.9183Z" fill="black"/>
<path d="M57.4618 28.521L66.2672 32.5195C66.3967 32.5785 66.5325 32.6063 66.6659 32.6063C67.0329 32.6063 67.384 32.3955 67.5452 32.0399C67.7659 31.5545 67.5511 30.9822 67.0656 30.7615L58.2603 26.763C57.7748 26.5423 57.2025 26.7575 56.9818 27.243C56.7616 27.728 56.9763 28.3003 57.4618 28.521Z" fill="black"/>
<path d="M78 25.7975C78 22.7174 75.701 20.1644 72.729 19.7642C72.7453 19.5817 72.7538 19.3982 72.7538 19.2143C72.7538 15.8579 70.0228 13.127 66.6665 13.127C63.3096 13.127 60.5787 15.8579 60.5787 19.2143C60.5787 19.7474 61.0111 20.1798 61.5442 20.1798C62.0773 20.1798 62.5097 19.7474 62.5097 19.2143C62.5097 16.9227 64.3744 15.0575 66.6665 15.0575C68.9586 15.0575 70.8232 16.9227 70.8232 19.2143C70.8232 19.6199 70.7642 20.0221 70.6476 20.4104C70.5569 20.7134 70.6204 21.0417 70.8172 21.2891C71.0141 21.5366 71.3196 21.6715 71.6355 21.6512C71.7436 21.6437 71.8319 21.6407 71.9127 21.6407C74.2048 21.6407 76.0694 23.5054 76.0694 25.7975C76.0694 28.0891 74.2048 29.9542 71.9127 29.9542C71.8319 29.9542 71.7436 29.9507 71.6355 29.9438C71.3201 29.9234 71.0141 30.0583 70.8172 30.3058C70.6199 30.5533 70.5569 30.8815 70.6476 31.1845C70.7642 31.5723 70.8232 31.975 70.8232 32.3807C70.8232 34.6728 68.9586 36.5374 66.6665 36.5374C64.3744 36.5374 62.5097 34.6728 62.5097 32.3807C62.5097 31.8476 62.0773 31.4151 61.5442 31.4151C61.0111 31.4151 60.5787 31.8476 60.5787 32.3807C60.5787 35.737 63.3096 38.468 66.6665 38.468C70.0228 38.468 72.7538 35.737 72.7538 32.3807C72.7538 32.1962 72.7453 32.0127 72.729 31.8302C75.701 31.43 78 28.8771 78 25.7975V25.7975Z" fill="black"/>
</g>
<defs>
<clipPath id="clip0">
<rect width="65" height="65" fill="white" transform="translate(13 13)"/>
</clipPath>
</defs>
</svg>
