<svg width="280" height="70" fill="none" xmlns="http://www.w3.org/2000/svg">
  <circle cx="245" cy="35" r="33.5" fill="#C6EEFF" stroke="#000" stroke-width="3"/>
  <g clip-path="url(#clip0)">
    <path d="M233.199 18.63h19.3v2.87h-19.3v-2.87z" fill="#FC9E51"/>
    <path d="M241.726 15.238h8.023V28.74h-8.023V15.238z" fill="#F4D553"/>
    <path d="M241.726 15.238h2.889V28.74h-2.889V15.238z" fill="#FC9E51"/>
    <path d="M253.09 29.688v3.503h-14.704v-3.503c0-1.7 1.378-3.077 3.078-3.077h8.547c1.7 0 3.079 1.377 3.079 3.077z" fill="#FC9E51"/>
    <path d="M253.09 29.688v3.503h-10.874v-3.503c0-1.7 1.377-3.077 3.077-3.077h4.718c1.7 0 3.079 1.377 3.079 3.077z" fill="#F4D553"/>
    <path d="M264.502 49.91c0-10.364-8.401-18.765-18.764-18.765-10.364 0-18.764 8.401-18.764 18.764s8.401 9.905 18.764 9.905 18.764.458 18.764-9.905z" fill="#BDA4E0"/>
    <path d="M243.868 59.816c-9.485.014-16.894-.175-16.894-9.907 0-10.363 8.4-18.764 18.763-18.764-5.787 0-10.48 8.401-10.48 18.764 0 9.22 3.716 9.874 8.611 9.907z" fill="#8E66B5"/>
    <path d="M269.916 20.065a3.983 3.983 0 0 1-4.248 3.974 3.977 3.977 0 0 1-1.397 4.31 3.983 3.983 0 0 1-6.403-3.164v-10.24a3.984 3.984 0 1 1 7.8 1.145 3.984 3.984 0 0 1 4.248 3.974z" fill="#CDCFE0"/>
    <path d="M237.823 20.065a8.484 8.484 0 0 1-6.025 8.118 8.48 8.48 0 1 1 0-16.238 8.485 8.485 0 0 1 6.025 8.12z" fill="#2D9E7B"/>
    <path d="M237.823 20.065a8.485 8.485 0 0 1-6.025 8.118 8.483 8.483 0 0 1 0-16.237 8.485 8.485 0 0 1 6.025 8.119z" fill="#72D6B7"/>
    <path d="M264.271 28.35a3.983 3.983 0 0 1-6.403-3.164V14.944a3.984 3.984 0 0 1 5.733-3.58l.001.001c-3.992-.89-6.471 6.286-2.035 8.242 0 0-4.635 6 2.704 8.742z" fill="#ABAEC4"/>
    <path d="M260.877 38.796a.75.75 0 0 0-.202 1.042 17.917 17.917 0 0 1 3.076 10.071c0 2.905-.684 5-2.089 6.403-2.779 2.774-8.285 2.766-14.66 2.753a710.65 710.65 0 0 0-2.529 0c-6.375.012-11.88.022-14.659-2.753-1.406-1.403-2.09-3.498-2.09-6.403 0-9.932 8.081-18.014 18.014-18.014 4.811 0 9.335 1.874 12.737 5.277a.751.751 0 0 0 1.062-1.062 19.526 19.526 0 0 0-5.696-3.964v-2.458a3.834 3.834 0 0 0-3.341-3.796V22.25h2a.75.75 0 0 0 .751-.75v-2.87a.75.75 0 0 0-.751-.75h-2v-2.642a.75.75 0 0 0-.751-.75h-8.023a.75.75 0 0 0-.751.75v2.641h-2.663c-.985-4.039-4.632-7.046-8.97-7.046-5.09 0-9.231 4.142-9.231 9.232 0 1.41.31 2.765.922 4.025a.75.75 0 1 0 1.351-.655 7.655 7.655 0 0 1-.771-3.37c0-4.262 3.467-7.73 7.729-7.73 4.262 0 7.73 3.468 7.73 7.73 0 4.262-3.468 7.73-7.73 7.73a7.678 7.678 0 0 1-5.494-2.293.751.751 0 0 0-1.067 1.056 9.167 9.167 0 0 0 6.561 2.738c4.338 0 7.985-3.008 8.97-7.046h2.663v3.642a3.834 3.834 0 0 0-3.339 3.796v2.469c-6.728 3.083-11.413 9.88-11.413 17.752 0 3.324.827 5.767 2.53 7.466 3.22 3.214 9.013 3.205 15.723 3.191H247l1.219.002c6.188 0 11.48-.175 14.504-3.193 1.702-1.7 2.529-4.142 2.529-7.466 0-3.91-1.152-7.684-3.333-10.912a.75.75 0 0 0-1.042-.201zm-9.128-19.415v1.367H250.5v-1.367h1.249zm-2.751-3.392v9.87h-6.521v-9.87h6.521zm-10.45 4.76a9.095 9.095 0 0 0 0-1.368h2.427v1.367h-2.427zm.589 8.94a2.33 2.33 0 0 1 2.327-2.328h8.547a2.33 2.33 0 0 1 2.328 2.327v1.846a19.537 19.537 0 0 0-6.601-1.14c-2.316 0-4.538.407-6.601 1.15v-1.856zM255.003 19.38c.104 0 .21-.02.311-.066l6.848-3.11a.75.75 0 1 0-.621-1.368l-6.848 3.11a.751.751 0 0 0 .31 1.435z" fill="#000"/>
    <path d="M254.693 22.183l6.848 3.11a.75.75 0 0 0 .994-.373.75.75 0 0 0-.373-.994l-6.848-3.11a.752.752 0 0 0-.621 1.367z" fill="#000"/>
    <path d="M270.667 20.065a4.742 4.742 0 0 0-4.1-4.693 4.74 4.74 0 0 0-4.715-5.162 4.74 4.74 0 0 0-4.735 4.734.751.751 0 1 0 1.502 0 3.237 3.237 0 0 1 3.233-3.233 3.237 3.237 0 0 1 3.096 4.164.754.754 0 0 0 .768.965 3.236 3.236 0 0 1 3.449 3.225 3.237 3.237 0 0 1-3.449 3.225.75.75 0 0 0-.768.965 3.237 3.237 0 0 1-3.096 4.163 3.236 3.236 0 0 1-3.233-3.233.752.752 0 0 0-1.502 0 4.74 4.74 0 0 0 4.735 4.735 4.74 4.74 0 0 0 4.715-5.163 4.742 4.742 0 0 0 4.1-4.692z" fill="#000"/>
  </g>
  <g clip-path="url(#clip1)">
    <path d="M124.33 39.482c0 2.178-8.676 4.216-19.379 4.216-10.703 0-19.38-2.038-19.38-4.216 0-2.178 8.677-3.943 19.38-3.943s19.379 1.765 19.379 3.943z" fill="#525468"/>
    <path d="M87.393 39.482c0-2.116 8.189-3.842 18.469-3.939a98.318 98.318 0 0 0-.911-.004c-10.703 0-19.38 1.765-19.38 3.943s8.677 4.216 19.38 4.216c.305 0 .609-.002.911-.005-10.28-.111-18.469-2.096-18.469-4.211z" fill="#3E4151"/>
    <path d="M124.33 23.937c0-6.408-8.676-11.602-19.379-11.602-10.703 0-19.38 5.194-19.38 11.602 0 6.407 8.677 11.602 19.38 11.602s19.379-5.195 19.379-11.602z" fill="#E4E3E1"/>
    <path d="M120.833 25.583c0-5.25-7.111-9.508-15.882-9.508s-15.882 4.257-15.882 9.508c0 5.252 7.11 9.508 15.882 9.508 8.771 0 15.882-4.256 15.882-9.508z" fill="#D1D0CF"/>
    <path d="M87.393 23.937c0-6.225 8.189-11.304 18.469-11.59a33.575 33.575 0 0 0-.911-.012c-10.703 0-19.38 5.194-19.38 11.602 0 6.407 8.677 11.602 19.38 11.602.305 0 .609-.005.911-.013-10.28-.285-18.469-5.365-18.469-11.59z" fill="#D1D0CF"/>
    <path d="M90.891 25.583c0-5.068 6.624-9.209 14.971-9.491-.302-.01-.605-.017-.911-.017-8.771 0-15.882 4.257-15.882 9.508 0 5.252 7.11 9.508 15.882 9.508.306 0 .609-.005.911-.016-8.347-.282-14.97-4.423-14.97-9.492z" fill="#AFAFAF"/>
    <path d="M118.256 42.53a2.78 2.78 0 0 0-2.57-1.72h-.013c.205-2.075-1.952-3.631-3.862-2.737a.31.31 0 0 1-.396-.119c-1.425-2.336-4.88-2.143-6.035.336a.35.35 0 0 1-.427.18 2.627 2.627 0 0 0-1.306-.081.393.393 0 0 1-.442-.236c-1.093-2.7-5.052-2.337-5.629.52a.282.282 0 0 1-.365.215c-2.023-.664-4.086.9-4.022 3.009a.525.525 0 0 1-.313.505 2.382 2.382 0 0 0-.47.267c7.526 1.303 18.666 1.243 25.85-.138z" fill="#F6E1C6"/>
    <path d="M94.457 42.947c.144-.11.299-.203.465-.278a.525.525 0 0 0 .302-.511c-.109-2.107 1.92-3.716 3.957-3.095.163.05.33-.055.36-.223a2.86 2.86 0 0 1 2.078-2.301c-1.575-.643-3.639.132-4.043 2.134a.282.282 0 0 1-.365.215c-2.024-.664-4.086.9-4.022 3.009a.525.525 0 0 1-.313.504 2.388 2.388 0 0 0-.47.268c1.325.23.543.133 2.051.278zM105.605 38.425c.43-.092.883-.075 1.307.053a.35.35 0 0 0 .423-.189 3.37 3.37 0 0 1 2.034-1.865c-1.508-.393-3.237.25-3.989 1.866a.344.344 0 0 1-.062.09.4.4 0 0 0 .287.045z" fill="#E2C8AC"/>
    <path d="M104.951 43.425c-10.703 0-19.38-1.765-19.38-3.943V51.42c0 2.177 8.677 3.943 19.38 3.943s19.379-1.766 19.379-3.943V39.482c0 2.178-8.676 3.943-19.379 3.943z" fill="#E4E3E1"/>
    <path d="M87.393 41.152c-1.168-.507-1.822-1.073-1.822-1.67v11.937c0 .597.654 1.163 1.822 1.67V41.152z" fill="#D1D0CF"/>
    <path d="M104.951 46.737c-10.703 0-19.38-1.766-19.38-3.943v5.456c0 2.177 8.677 3.942 19.38 3.942s19.379-1.765 19.379-3.943v-5.455c0 2.178-8.676 3.943-19.379 3.943z" fill="#FFC964"/>
    <path d="M85.571 48.25c0 .597.654 1.163 1.822 1.67v-5.456c-1.168-.507-1.822-1.073-1.822-1.67v5.456z" fill="#F3A334"/>
    <path d="M125.224 52.685l-.894-1.358c0 2.178-8.676 3.944-19.379 3.944-10.703 0-19.38-1.766-19.38-3.944l-.808 1.554a1.101 1.101 0 0 0 .424 1.464c7.96 4.572 33.269 4.276 39.763-.223.44-.305.576-.986.274-1.437z" fill="#D1D0CF"/>
    <path d="M86.79 54.178l.612-1.176c-1.173-.509-1.83-1.076-1.83-1.675l-.81 1.553a1.102 1.102 0 0 0 .425 1.465c.461.265.982.513 1.553.746a1.106 1.106 0 0 1 .05-.913z" fill="#AFAFAF"/>
    <path d="M84.881 39.497v11.678l-.731 1.405a1.78 1.78 0 0 0 .69 2.373c8.164 4.69 33.772 4.402 40.492-.255.744-.515.956-1.624.454-2.375l-.78-1.184V39.496c0-3.004-8.969-3.995-12.037-4.277 1.871-.496 3.62-1.167 5.178-1.997 3.702-1.974 6.081-4.707 6.698-7.697a.683.683 0 0 0-1.339-.276c-.468 2.272-2.172 4.404-4.845 6.095 1.853-1.672 2.847-3.655 2.847-5.746 0-5.255-6.391-9.614-14.867-10.139a.683.683 0 1 0-.085 1.364c7.67.475 13.586 4.301 13.586 8.775 0 2.29-1.534 4.47-4.319 6.137-9.692 5.802-26.077 1.555-26.077-6.137 0-4.507 5.995-8.34 13.703-8.782a.683.683 0 1 0-.078-1.364c-13.081.75-18.925 9.771-12.145 15.892-3.214-2.033-4.979-4.646-4.979-7.393 0-6.039 8.498-10.919 18.697-10.919 9.199 0 17.151 4.013 18.497 9.335a.684.684 0 0 0 1.325-.335c-1.53-6.049-10.027-10.366-19.822-10.366-10.892 0-20.063 5.324-20.063 12.285 0 3.349 2.134 6.47 6.008 8.79 1.766 1.057 3.802 1.892 6.013 2.48-2.993.275-12.021 1.262-12.021 4.275zm1.366 1.861c5.98 3.587 31.167 3.735 37.393 0v1.451c0 .299-.921 1.263-5.129 2.119-3.617.736-8.435 1.14-13.567 1.14-12.066 0-18.697-2.14-18.697-3.259v-1.45zm0 3.313c6.123 3.672 31.294 3.658 37.393 0v3.594c0 .299-.921 1.262-5.129 2.118-3.617.736-8.435 1.141-13.567 1.141-11.922 0-18.697-2.11-18.697-3.26v-3.593zm0 5.455c6.112 3.666 31.28 3.667 37.393 0v1.217c0 .299-.921 1.262-5.129 2.119-7.488 1.523-19.65 1.522-27.135 0-4.207-.857-5.129-1.82-5.129-2.12v-1.216zm38.125 2.534l.277.421c.092.137.041.4-.095.495-6.2 4.295-31.215 4.683-39.034.192a.417.417 0 0 1-.158-.557l.244-.468c4.688 4.147 34.056 4.414 38.766-.083zm-.732-13.163c0 .094-.09.252-.342.452-.548.434-1.862 1.062-4.68 1.644a3.446 3.446 0 0 0-2.273-1.57c-.216-2.141-2.436-3.613-4.532-2.86a4.104 4.104 0 0 0-.655-.718c8.532.59 12.482 2.231 12.482 3.052zm-18.696-3.26c.37 0 .739.003 1.106.007a4.07 4.07 0 0 0-1.166 1.333 3.32 3.32 0 0 0-1.148-.061 3.604 3.604 0 0 0-.977-1.253c.72-.017 1.449-.026 2.185-.026zm-6.706 2.404c.245-1.21 1.2-1.723 2.012-1.798.814-.076 1.85.252 2.314 1.4.193.474.699.747 1.205.65.321-.062.655-.041.966.06a1.034 1.034 0 0 0 1.257-.542c.926-1.987 3.691-2.14 4.832-.268a.993.993 0 0 0 1.27.381c1.423-.666 3.046.495 2.892 2.052a.684.684 0 0 0 .679.75h.022a2.09 2.09 0 0 1 1.41.55c-6.736 1.125-16.333 1.166-23.266.162.026-.106.037-.216.034-.328-.05-1.642 1.553-2.857 3.126-2.34a.965.965 0 0 0 1.248-.729zm-.348-2.133a3.57 3.57 0 0 0-.885 1.453c-2.339-.49-4.517 1.341-4.508 3.692-.083.04-.166.083-.246.13-1.487-.267-4.474-.894-5.661-1.834-.252-.2-.343-.358-.343-.452 0-.299.922-1.262 5.13-2.118 1.886-.384 4.1-.678 6.513-.871z" fill="#000"/>
  </g>
  <g clip-path="url(#clip2)">
    <path d="M105 1.04C86.244 1.04 71.04 16.244 71.04 35S86.244 68.96 105 68.96 138.96 53.756 138.96 35 123.756 1.04 105 1.04zM77.148 35c0-9.439 4.697-17.78 11.88-22.818l26.586 48.573A27.764 27.764 0 0 1 105 62.852c-15.382 0-27.852-12.47-27.852-27.852zm43.823 22.818L94.384 9.245A27.765 27.765 0 0 1 105 7.148c15.382 0 27.85 12.47 27.85 27.852 0 9.44-4.696 17.78-11.879 22.818z" fill="#FF5A73"/>
    <path d="M89.263 11.17c.289.068.534.254.677.514l26.587 48.573a1.038 1.038 0 0 1-.515 1.46A28.721 28.721 0 0 1 105 63.89c-9.913 0-19.022-4.994-24.366-13.36a1.04 1.04 0 0 1 1.752-1.119c4.96 7.765 13.414 12.4 22.614 12.4 3.146 0 6.212-.536 9.134-1.597l-3.667-6.698-6.186-11.303-7.573-13.834-8.022-14.657A26.857 26.857 0 0 0 78.188 35a26.6 26.6 0 0 0 2.308 10.897 1.039 1.039 0 1 1-1.9.847A28.667 28.667 0 0 1 76.11 35 28.94 28.94 0 0 1 88.43 11.332c.242-.17.545-.229.832-.162zM120.724 58.943a1.04 1.04 0 0 1-.676-.513L93.461 9.857a1.038 1.038 0 0 1 .515-1.46 28.718 28.718 0 0 1 11.012-2.175c9.913 0 19.021 4.995 24.366 13.36a1.041 1.041 0 0 1-1.753 1.12c-4.96-7.765-13.414-12.4-22.613-12.4-3.146 0-6.212.536-9.134 1.597l3.667 6.698 6.186 11.303 7.573 13.833 8.022 14.658A26.857 26.857 0 0 0 131.8 35.114c0-3.795-.777-7.462-2.308-10.898a1.04 1.04 0 1 1 1.899-.846 28.662 28.662 0 0 1 2.488 11.744 28.94 28.94 0 0 1-12.322 23.668c-.242.17-.545.229-.833.161z" fill="#000"/>
    <path d="M129.749 10.251C123.138 3.641 114.349 0 105 0c-9.349 0-18.138 3.64-24.749 10.251C73.641 16.861 70 25.651 70 35c0 9.349 3.64 18.138 10.251 24.749C86.861 66.359 95.651 70 105 70c9.349 0 18.138-3.64 24.749-10.251C136.359 53.139 140 44.349 140 35c0-9.349-3.641-18.138-10.251-24.749zm-1.47 48.027c-6.219 6.218-14.486 9.643-23.279 9.643s-17.06-3.425-23.278-9.643C75.504 52.06 72.079 43.794 72.079 35s3.425-17.06 9.643-23.279C87.94 5.503 96.207 2.08 105 2.08s17.06 3.424 23.279 9.643c6.218 6.217 9.642 14.485 9.642 23.278s-3.424 17.06-9.642 23.279z" fill="#000"/>
  </g>
  <circle cx="35" cy="35" r="34.5" fill="#000" stroke="#000"/>
  <path d="M68.5 35c0 18.502-14.998 33.5-33.5 33.5C16.498 68.5 1.5 53.502 1.5 35 1.5 16.498 16.498 1.5 35 1.5c18.502 0 33.5 14.998 33.5 33.5z" fill="#9AF4EF" stroke="#000"/>
  <path opacity=".3" d="M55.105 7.585c-15.05 4.018-26.138 17.74-26.138 34.056 0 10.713 4.786 20.303 12.328 26.768C57.064 65.455 69 51.626 69 35c0-11.254-5.471-21.227-13.895-27.415z" fill="#FFFFF4"/>
  <path d="M21.292 26.734c.675.173 1.063.334 1.463.594.384.25.783.592 1.442 1.158l.218.187c.388.332.843.474 1.286.538.385.056.799.057 1.18.058h.14c.884.005 1.622.052 2.215.543.207.171.369.357.534.565l.11.141c.131.168.277.355.44.527.392.418.893.77 1.724.988l-.005.058c-.027.296-.067.691-.118 1.091-.05.403-.111.8-.178 1.1a3.825 3.825 0 0 1-.05.203c-.15-.019-.354-.048-.605-.088-.58-.092-1.393-.236-2.37-.417-1.955-.361-4.551-.869-7.202-1.404a576.88 576.88 0 0 1-7.521-1.567c-2.184-.472-3.79-.844-4.275-1-.997-.322-1.877-.422-3.084-.506-.266-.019-.548-.037-.852-.056a98.959 98.959 0 0 1-3.77-.296 33.23 33.23 0 0 1 2.198-7.352c1.144.402 2.412.704 3.977.652.975-.032 1.635.023 2.154.165.506.139.905.369 1.345.733l.113.093c.644.534 1.12.929 1.566 1.141.539.257 1.02.25 1.63.1.547-.135.93-.201 1.27-.138.306.057.64.236 1.034.76.346.462.705.779 1.083.988.38.21.754.296 1.107.332.26.026.53.025.77.024h.2c.3.002.567.018.83.085z" fill="#36B294" stroke="#000"/>
  <path opacity=".4" d="M48.636 41.64c0 7.506 5.307 13.77 12.373 15.25A33.857 33.857 0 0 0 69 35c0-2.927-.37-5.768-1.066-8.478a15.566 15.566 0 0 0-3.715-.465c-8.607 0-15.583 6.977-15.583 15.584z" fill="#FFFFF4"/>
  <path d="M57.114 37.291a.171.171 0 0 1-.171-.17v-7.225a.171.171 0 0 1 .343 0v7.224a.17.17 0 0 1-.172.171z" fill="#674447" stroke="#000"/>
  <path d="M57.114 33.008a3.728 3.728 0 0 0 3.728-3.728c0-1.087-.454-3.404-1.208-5.46-.376-1.023-.813-1.946-1.282-2.604-.489-.686-.914-.948-1.238-.948v12.74zm0 0a3.728 3.728 0 0 1-3.728-3.728m3.728 3.728l-3.728-3.728m0 0c0-1.087.454-3.404 1.208-5.46m-1.208 5.46l1.208-5.46m0 0c.375-1.023.812-1.947 1.281-2.604m-1.281 2.605l1.281-2.605m0 0c.49-.686.915-.948 1.239-.948l-1.239.948z" fill="#43AB5F" stroke="#000"/>
  <path d="M56.327 20.68c.3-.291.567-.412.787-.412.324 0 .749.262 1.238.948.469.657.906 1.58 1.282 2.605.754 2.055 1.207 4.372 1.207 5.46a3.729 3.729 0 0 1-2.275 3.434 4.349 4.349 0 0 0 1.265-3.073c0-1.149-.452-3.387-1.163-5.327-.358-.974-.793-1.909-1.293-2.61-.29-.408-.64-.789-1.048-1.025z" fill="#71BE63" stroke="#000"/>
  <path opacity=".6" d="M26.167 17.834l.287.07.2-.216a3.112 3.112 0 0 1 2.292-1.012c1.56 0 2.854 1.14 3.093 2.633h-8.345a2.044 2.044 0 0 1 1.982-1.543c.16 0 .32.025.49.068zM23.392 9.133a1.771 1.771 0 0 1 1.699-1.27c.136 0 .275.02.425.058l.287.071.2-.216a2.724 2.724 0 0 1 2.007-.887c1.345 0 2.463.967 2.699 2.244h-7.317zM51.697 11.03l-.201-.217a2.09 2.09 0 0 0-1.54-.68l1.74.897zm0 0l.286-.071m-.286.07l.286-.07m0 0c.116-.03.22-.045.318-.045.554 0 1.029.34 1.226.824m-1.544-.78l1.544.78m0 0h-5.616m5.616 0h-5.616m0 0a2.106 2.106 0 0 1 2.046-1.605l-2.046 1.605z" fill="#fff" stroke="#000"/>
  <path d="M24.565 31.218c.816.306 1.636-.049 2.227-.357.156-.081.308-.166.45-.245l.007-.005c.141-.079.27-.15.393-.214.257-.134.425-.198.535-.211a.496.496 0 0 1 .143.127c.105.118.202.264.327.45l.16.237c.37.536.96 1.313 2.003 1.313.524 0 .993-.063 1.393-.12l.045-.006c.393-.055.694-.097.964-.09.263.006.46.06.638.183.185.127.393.362.614.81l.016.045.007.02.048.136c.047.125.117.291.226.457.23.35.633.69 1.285.69.559 0 .936.114 1.243.275.278.145.505.328.784.553l.157.125c.345.275.75.576 1.31.803.56.227 1.248.368 2.159.368 1.038 0 1.556.39 2.217.89l.097.073c.358.269.77.567 1.309.792.43.18.926.307 1.53.352v2.544a1824.577 1824.577 0 0 1-6.153-.12c-4.01-.084-9.378-.205-14.808-.352-5.431-.147-10.923-.322-15.182-.514-2.13-.095-3.947-.196-5.294-.298a35.305 35.305 0 0 1-1.634-.155 8.014 8.014 0 0 1-.495-.075 2.224 2.224 0 0 1-.19-.045l-.013-.005c-.444-.19-.91-.524-1.367-.933A33.158 33.158 0 0 1 1.5 35c0-2.462.278-4.858.79-7.17.734-.266 1.298-.723 1.759-1.097l.087-.07c.575-.466.95-.726 1.386-.726.481 0 .764.111.956.244.204.14.35.335.52.593l.063.097c.145.225.33.51.577.732.316.283.722.46 1.276.46.537 0 .979-.191 1.35-.413a7.665 7.665 0 0 0 .588-.396c.136-.098.262-.188.391-.272.299-.193.562-.317.845-.346.273-.028.623.026 1.1.298 1.168.666 2.077.51 2.752.395l.13-.023c.345-.057.567-.075.77-.018.186.05.421.184.72.577.475.625 1.125.8 1.736.896.18.028.355.05.528.072.446.056.884.11 1.372.268.723.233 1.084.547 1.5.92l.028.025c.431.386.924.827 1.841 1.172zm3.604-1.034h.006-.006z" fill="#00A07D" stroke="#000"/>
  <path d="M45.57 40.498l.465 1.006-30.893 16.547-.299-.07A3027.292 3027.292 0 0 1 9.5 56.71C4.605 50.97 1.61 43.56 1.503 35.448c11.739-1.284 20.858-.052 27.994 1.513 2.606.572 4.942 1.187 7.054 1.743.822.216 1.61.424 2.368.616 2.54.646 4.746 1.13 6.65 1.18z" fill="#94D75B" stroke="#000"/>
  <path d="M19.113 35.303c4.615.449 8.632 1.235 12.139 2.061 1.922.453 3.672.914 5.292 1.34 1.065.28 2.073.545 3.037.783 1.883.466 3.576.826 5.094.96l-1.553 1.194-1.437.536c-1.316-.02-2.98-.494-5.066-1.241-.927-.332-1.924-.712-2.999-1.123l-.464-.177a169.283 169.283 0 0 0-4.05-1.498c-2.92-1.03-6.243-2.063-9.993-2.835z" fill="#B0EB81" stroke="#000"/>
  <path d="M23.659 17.327l.21.302.35-.11c.246-.078.482-.125.722-.125 1.162 0 2.133.822 2.363 1.915H12.862a2.416 2.416 0 0 1 2.363-1.915c.24 0 .476.047.721.125l.35.11.211-.302a4.348 4.348 0 0 1 3.576-1.876c1.48 0 2.787.742 3.576 1.876zM46.386 14.64l.21.301.35-.11c.272-.086.536-.138.804-.138 1.313 0 2.407.942 2.641 2.187H34.484a2.688 2.688 0 0 1 2.641-2.187c.268 0 .532.052.803.138l.35.11.21-.302a4.8 4.8 0 0 1 3.95-2.071 4.8 4.8 0 0 1 3.948 2.072zM26.074 11.568a2.91 2.91 0 0 1 2.866-2.41c.231 0 .46.037.7.096l.286.072.2-.217a4.34 4.34 0 0 1 3.197-1.411 4.37 4.37 0 0 1 4.341 3.87h-11.59z" fill="#fff" stroke="#000"/>
  <path d="M35 68.5c-13.379 0-24.919-7.848-30.287-19.19 16.885-.099 27.761-3.763 36.98-7.432 1.172-.466 2.315-.932 3.44-1.39 7.704-3.136 14.502-5.904 23.357-6.041.006.185.01.368.01.553 0 18.502-14.998 33.5-33.5 33.5z" fill="#71BE63" stroke="#000"/>
  <path d="M47.352 41.583a.262.262 0 0 1-.262-.261v-8.199c0-.143.117-.26.262-.26.146 0 .262.116.262.26v8.199a.262.262 0 0 1-.262.26z" fill="#674447" stroke="#000"/>
  <path d="M51.65 32.425a4.298 4.298 0 0 1-8.596 0c0-1.245.518-3.882 1.375-6.219.427-1.164.925-2.218 1.462-2.971.558-.782 1.058-1.105 1.46-1.105.403 0 .904.323 1.46 1.105.538.753 1.036 1.807 1.464 2.971.856 2.337 1.374 4.974 1.374 6.219z" fill="#43AB5F" stroke="#000"/>
  <path d="M46.347 22.681c.375-.384.715-.55 1.005-.55.402 0 .903.322 1.46 1.104.537.753 1.036 1.807 1.463 2.971.857 2.337 1.374 4.974 1.374 6.219a4.3 4.3 0 0 1-2.94 4.079 4.872 4.872 0 0 0 1.66-3.669c0-1.293-.511-3.824-1.317-6.022-.405-1.102-.896-2.157-1.458-2.945-.348-.488-.764-.931-1.247-1.187z" fill="#71BE63" stroke="#000"/>
  <path d="M35 68.5c-8.522 0-16.283-3.197-22.193-8.442 10.211-1.148 20.48-6.59 29.952-11.78l1.36-.745c4.435-2.435 8.685-4.768 12.69-6.55 4.2-1.87 8.08-3.112 11.572-3.245C66.987 54.958 52.579 68.5 35 68.5z" fill="#43AB5F" stroke="#000"/>
  <path d="M27.357 60.589a.386.386 0 1 1-.772 0 .386.386 0 0 1 .771 0z" fill="#B0EB81" stroke="#000"/>
  <path d="M31.49 50.176a.386.386 0 1 1-.771 0 .386.386 0 0 1 .771 0zM55.45 38.548a.386.386 0 1 1-.772 0 .386.386 0 0 1 .772 0z" fill="#94D75B" stroke="#000"/>
  <path d="M40.667 62.005a.386.386 0 1 1-.771 0 .386.386 0 0 1 .771 0z" fill="#71BE63" stroke="#000"/>
  <path d="M45.439 56.516a.386.386 0 1 1-.772 0 .386.386 0 0 1 .772 0z" fill="#B0EB81" stroke="#000"/>
  <path d="M35.386 57.775a.386.386 0 1 1-.771 0 .386.386 0 0 1 .771 0zM20.511 61.474a.386.386 0 1 1-.771 0 .386.386 0 0 1 .771 0z" fill="#71BE63" stroke="#000"/>
  <path d="M21.397 53.999a.386.386 0 1 1-.772 0 .386.386 0 0 1 .772 0zM36.272 46.865a.386.386 0 1 1-.772 0 .386.386 0 0 1 .772 0z" fill="#B0EB81" stroke="#000"/>
  <path d="M14.133 53.556a.386.386 0 1 1-.771 0 .386.386 0 0 1 .771 0z" fill="#94D75B" stroke="#000"/>
  <path d="M51.65 52.67a.386.386 0 1 1-.772 0 .386.386 0 0 1 .772 0zM60.222 50.176a.386.386 0 1 1-.771 0 .386.386 0 0 1 .771 0z" fill="#B0EB81" stroke="#000"/>
  <path d="M43.825 51.785a.386.386 0 1 1-.771 0 .386.386 0 0 1 .771 0zM51.65 58.581a.386.386 0 1 1-.772 0 .386.386 0 0 1 .772 0zM54.334 47.75a.386.386 0 1 1-.772 0 .386.386 0 0 1 .772 0zM60.222 42.608a.386.386 0 1 1-.771 0 .386.386 0 0 1 .771 0z" fill="#71BE63" stroke="#000"/>
  <circle cx="175" cy="35" r="33.5" fill="#FFBCBC" stroke="#000" stroke-width="3"/>
  <g clip-path="url(#clip3)">
    <path d="M170.126 45.416a6.713 6.713 0 0 0 .157-1.775c-.153-3.525-3.06-6.357-6.587-6.423a6.722 6.722 0 0 0-6.557 8.685c.131.427-.045.886-.413 1.14a6.713 6.713 0 0 0-2.901 5.774c.125 3.545 3.036 6.408 6.582 6.478a6.701 6.701 0 0 0 4.945-2.026 1.02 1.02 0 0 1 1.138-.225c.748.322 1.58.487 2.453.453 2.942-.117 5.324-2.525 5.41-5.468a5.644 5.644 0 0 0-3.616-5.435 1.014 1.014 0 0 1-.611-1.178z" fill="#A3DEFE"/>
    <path d="M166.492 57.045a5.626 5.626 0 0 0 2.451.452c2.936-.117 5.313-2.514 5.409-5.448-3.433 2.828-7.544.895-8.726-.915a.726.726 0 0 0-1.075-.148c-4.431 3.773-9.339.528-9.179-2.704a6.697 6.697 0 0 0-1.55 4.41c.061 3.595 2.991 6.532 6.585 6.603a6.7 6.7 0 0 0 4.945-2.026c.295-.303.751-.39 1.14-.224z" fill="#7ACEFA"/>
    <path d="M162.835 17.222a4.519 4.519 0 1 1-9.037 0 4.519 4.519 0 0 1 9.037 0z" fill="#A3DEFE"/>
    <path d="M162.211 19.512c-4.841.572-6.671-4.04-5.51-6.51a4.52 4.52 0 1 0 5.51 6.51z" fill="#7ACEFA"/>
    <path d="M191.078 37.432a68.22 68.22 0 0 1-15.687-15.687c-2.334-3.254-7.03-3.639-9.862-.807l-7.28 7.28c-2.832 2.833-2.448 7.529.807 9.863a68.239 68.239 0 0 1 15.687 15.686c2.334 3.255 7.029 3.64 9.861.807l7.281-7.28c2.832-2.832 2.447-7.528-.807-9.862z" fill="#6A96D7"/>
    <path d="M177.922 52.1a3.104 3.104 0 0 1-.322-.381 71.91 71.91 0 0 0-7.573-8.923 71.98 71.98 0 0 0-8.922-7.573 2.97 2.97 0 0 1-.37-4.519l7.28-7.28a2.971 2.971 0 0 1 4.519.37 71.913 71.913 0 0 0 7.573 8.923 71.932 71.932 0 0 0 8.922 7.572 2.97 2.97 0 0 1 .37 4.518l-7.28 7.281a2.952 2.952 0 0 1-2.115.872 2.946 2.946 0 0 1-2.082-.86z" fill="#8EAFE2"/>
    <path d="M191.845 16.459a8.482 8.482 0 0 0-4.756 1.47 1.25 1.25 0 0 1-1.143.147 7.365 7.365 0 0 0-2.82-.465c-3.888.118-7.044 3.297-7.137 7.186a7.37 7.37 0 0 0 9.957 7.08 1.25 1.25 0 0 1 1.143.147 8.518 8.518 0 0 0 13.301-7.167c-.064-4.646-3.899-8.413-8.545-8.398z" fill="#A3DEFE"/>
    <path d="M186.951 25.051c-3.889-.073-5.92-4.697-2.933-7.412a7.492 7.492 0 0 0-.892-.028c-3.888.118-7.044 3.297-7.137 7.186a7.37 7.37 0 0 0 9.956 7.08 1.251 1.251 0 0 1 1.144.147 8.48 8.48 0 0 0 4.784 1.47 8.486 8.486 0 0 0 3.46-.733c-5.484.479-7.98-4.206-7.66-6.878a.746.746 0 0 0-.722-.832z" fill="#7ACEFA"/>
    <path d="M168.818 27.897a.703.703 0 0 1-.703-.703v-1.461a.703.703 0 0 1 1.407 0v1.46a.703.703 0 0 1-.704.704zM171.089 30.114a.703.703 0 0 1-.704-.703v-2.126a.703.703 0 0 1 1.407 0v2.126a.703.703 0 0 1-.703.703zM181.367 50.457a.703.703 0 0 1-.703-.703V47.22a.703.703 0 1 1 1.406 0v2.533a.703.703 0 0 1-.703.703z" fill="#6A96D7"/>
    <path d="M171.097 32.897c-.899-.9-2.209-1.048-2.926-.332-.716.717-.568 2.027.332 2.926.9.9 2.21 1.048 2.926.332.716-.716.568-2.026-.332-2.926zM179.925 41.726c-.899-.9-2.209-1.048-2.925-.332-.717.716-.568 2.026.331 2.926.9.9 2.21 1.048 2.926.331.716-.716.568-2.026-.332-2.925z" fill="#fff"/>
    <path d="M186.694 32.605a9.171 9.171 0 0 0 5.179 1.592 9.154 9.154 0 0 0 6.565-2.746 9.16 9.16 0 0 0 2.655-6.604c-.039-2.807-1.343-5.413-3.578-7.15a.703.703 0 1 0-.863 1.11 7.784 7.784 0 0 1 3.035 6.059 7.76 7.76 0 0 1-2.25 5.597 7.758 7.758 0 0 1-5.564 2.328 7.77 7.77 0 0 1-4.388-1.349 1.96 1.96 0 0 0-1.787-.224 6.64 6.64 0 0 1-2.343.423 6.614 6.614 0 0 1-4.769-2.009 6.62 6.62 0 0 1-1.894-4.818c.04-1.701.73-3.309 1.941-4.529a6.656 6.656 0 0 1 7.066-1.551c.587.22 1.255.137 1.786-.225a7.769 7.769 0 0 1 4.362-1.347 7.638 7.638 0 0 1 2.101.282.703.703 0 1 0 .376-1.355 9.145 9.145 0 0 0-2.451-.333h-.03a9.174 9.174 0 0 0-5.149 1.59.55.55 0 0 1-.501.072 8.04 8.04 0 0 0-3.089-.51 8.026 8.026 0 0 0-5.469 2.387 8.132 8.132 0 0 0-1.558 2.2l-.115-.16a7.179 7.179 0 0 0-5.258-2.977 7.178 7.178 0 0 0-5.672 2.083l-7.281 7.28a7.178 7.178 0 0 0-2.082 5.672 7.178 7.178 0 0 0 2.814 5.138 7.461 7.461 0 0 0-2.04 3.313.704.704 0 0 0 1.349.396 6.053 6.053 0 0 1 1.849-2.86 67.373 67.373 0 0 1 13.821 13.828 4.938 4.938 0 0 1-6.694 3.19 1.717 1.717 0 0 0-1.92.38 5.967 5.967 0 0 1-4.427 1.814 5.989 5.989 0 0 1-4.095-1.734 5.98 5.98 0 0 1-1.798-4.066 6.002 6.002 0 0 1 2.598-5.17 1.724 1.724 0 0 0 .685-1.925 6.272 6.272 0 0 1-.13-.505.703.703 0 1 0-1.376.292c.045.21.099.42.162.624.039.128-.018.272-.141.357a7.405 7.405 0 0 0-3.204 6.377 7.386 7.386 0 0 0 2.217 5.019A7.391 7.391 0 0 0 160.545 60a7.349 7.349 0 0 0 5.309-2.24.32.32 0 0 1 .358-.07 6.34 6.34 0 0 0 8.245-3.141 7.178 7.178 0 0 0 5.562 2.63c1.901 0 3.726-.751 5.082-2.108l7.281-7.28a7.179 7.179 0 0 0 2.082-5.672 7.177 7.177 0 0 0-2.977-5.258 67.767 67.767 0 0 1-5.383-4.295c.029-.01.059-.02.089-.032a.553.553 0 0 1 .501.07zm-7.085.609a72.664 72.664 0 0 0 9.01 7.646 2.236 2.236 0 0 1 .95 1.845 2.264 2.264 0 0 1-.668 1.605l-7.28 7.281a2.245 2.245 0 0 1-1.613.665 2.246 2.246 0 0 1-1.583-.648l-.006-.006a2.356 2.356 0 0 1-.248-.293 72.675 72.675 0 0 0-7.647-9.01 72.612 72.612 0 0 0-9.01-7.647 2.267 2.267 0 0 1-.282-3.45l7.28-7.28a2.265 2.265 0 0 1 1.605-.668h.006a2.231 2.231 0 0 1 1.839.95 72.814 72.814 0 0 0 7.647 9.01zm11.059 4.79a5.777 5.777 0 0 1 2.395 4.23 5.777 5.777 0 0 1-1.675 4.563l-7.281 7.28a5.774 5.774 0 0 1-4.563 1.675 5.776 5.776 0 0 1-4.23-2.394 68.79 68.79 0 0 0-15.265-15.426l-.003-.002a63.22 63.22 0 0 0-.581-.42 5.778 5.778 0 0 1-2.395-4.23 5.778 5.778 0 0 1 1.676-4.564l7.28-7.28a5.78 5.78 0 0 1 4.563-1.676 5.777 5.777 0 0 1 4.231 2.395c.221.309.452.624.688.942a8.012 8.012 0 0 0-.095 3.327 70.73 70.73 0 0 1-2.308-3.04 3.63 3.63 0 0 0-2.982-1.535h-.009a3.658 3.658 0 0 0-2.596 1.078l-7.281 7.28a3.675 3.675 0 0 0 .457 5.588 71.199 71.199 0 0 1 8.836 7.498 71.24 71.24 0 0 1 7.498 8.835c.118.166.25.32.389.461l.008.008A3.644 3.644 0 0 0 180 53.663h.021c.978 0 1.899-.382 2.594-1.077l7.281-7.28c1.434-1.435 1.439-3.763.01-5.192a3.75 3.75 0 0 0-.467-.396 71.288 71.288 0 0 1-8.314-6.982 8.117 8.117 0 0 0 3.328.238 69.327 69.327 0 0 0 6.215 5.03zm-11.694 3.479a.703.703 0 0 0 .497-.206l.575-.576a.704.704 0 0 0-.994-.994l-.576.575a.704.704 0 0 0 .498 1.2zm-20.658-19.039a5.228 5.228 0 0 0 5.222-5.222A5.228 5.228 0 0 0 158.316 12a5.228 5.228 0 0 0-5.222 5.222 5.228 5.228 0 0 0 5.222 5.222zm0-9.038a3.82 3.82 0 0 1 3.816 3.816 3.82 3.82 0 0 1-3.816 3.816 3.82 3.82 0 0 1-3.816-3.816 3.82 3.82 0 0 1 3.816-3.816zm13.23 20.94a.705.705 0 0 0 .995 0l.575-.574a.704.704 0 0 0-.994-.995l-.576.575a.704.704 0 0 0 0 .995zm4.732 4.615c.055 0 .111-.002.166-.006a.703.703 0 1 0-.096-1.403 1.009 1.009 0 0 1-1.077-1.077.704.704 0 0 0-1.403-.097 2.418 2.418 0 0 0 2.41 2.583z" fill="#000"/>
  </g>
  <defs>
    <clipPath id="clip0">
      <path fill="#fff" transform="translate(220.111 10.111)" d="M0 0h50.556v50.556H0z"/>
    </clipPath>
    <clipPath id="clip1">
      <path fill="#fff" transform="translate(81.667 11.667)" d="M0 0h46.667v46.667H0z"/>
    </clipPath>
    <clipPath id="clip2">
      <path fill="#fff" transform="translate(70)" d="M0 0h70v70H0z"/>
    </clipPath>
    <clipPath id="clip3">
      <path fill="#fff" transform="translate(153 12)" d="M0 0h48v48H0z"/>
    </clipPath>
  </defs>
</svg>
