<svg width="72" height="72" viewBox="0 0 72 72" fill="none" xmlns="http://www.w3.org/2000/svg">
<circle cx="36" cy="36" r="36" fill="black"/>
<path d="M70.5 36C70.5 55.0538 55.0538 70.5 36 70.5C16.9462 70.5 1.5 55.0538 1.5 36C1.5 16.9462 16.9462 1.5 36 1.5C55.0538 1.5 70.5 16.9462 70.5 36Z" fill="#9AF4EF" stroke="black"/>
<g opacity="0.3">
<path opacity="0.3" d="M56.6959 7.77893C41.2035 11.9151 29.7898 26.0398 29.7898 42.8359C29.7898 53.8642 34.7159 63.736 42.4801 70.3913C58.7125 67.3511 71 53.1147 71 36C71 24.415 65.3677 14.1492 56.6959 7.77893Z" fill="#FFFFF4"/>
</g>
<path d="M21.8921 27.4768L21.8921 27.4768C22.5887 27.6554 22.9892 27.8208 23.4028 28.0897C23.7986 28.3471 24.2108 28.7009 24.8884 29.2826C24.9602 29.3442 25.035 29.4084 25.1131 29.4754C25.5097 29.8153 25.9754 29.9607 26.4296 30.0266C26.8245 30.0838 27.2493 30.085 27.6418 30.0861C27.6904 30.0862 27.7385 30.0863 27.7859 30.0866C28.6959 30.0911 29.4603 30.1386 30.0758 30.6477C30.2903 30.8252 30.4574 31.0178 30.6274 31.2317C30.6642 31.278 30.7025 31.3271 30.742 31.3779C30.8762 31.55 31.0259 31.7422 31.1921 31.919C31.5959 32.3486 32.113 32.7115 32.9727 32.9351C32.9707 32.9582 32.9685 32.9819 32.9663 33.0064C32.9382 33.3114 32.8971 33.7186 32.8451 34.1307C32.7927 34.5456 32.7305 34.9536 32.6616 35.2648C32.6426 35.3507 32.6241 35.4244 32.6065 35.4858C32.4498 35.4667 32.2364 35.4357 31.97 35.3934C31.374 35.2987 30.5361 35.1508 29.5296 34.9647C27.5177 34.5926 24.8453 34.0698 22.1166 33.5189C19.3881 32.9681 16.6056 32.3897 14.3736 31.9065C12.1259 31.4198 10.472 31.0371 9.97189 30.8757C8.94681 30.5451 8.04241 30.4428 6.8002 30.3558C6.52687 30.3366 6.23652 30.3182 5.92363 30.2983C4.91831 30.2345 3.68031 30.1558 2.02665 29.9916C2.49248 27.3417 3.26358 24.798 4.29787 22.3928C5.47826 22.808 6.78535 23.121 8.39949 23.0671C9.40443 23.0336 10.0857 23.0903 10.6216 23.2376C11.1447 23.3812 11.557 23.6187 12.0118 23.9951L12.0118 23.9951C12.0508 24.0273 12.0891 24.0591 12.1269 24.0904C12.791 24.6404 13.2804 25.0458 13.7372 25.2636C14.2877 25.5262 14.7789 25.5187 15.4046 25.365C15.9679 25.2267 16.3654 25.157 16.7183 25.2232C17.0375 25.283 17.3854 25.4693 17.7924 26.0119C18.1475 26.4854 18.5149 26.81 18.9025 27.024C19.2913 27.2385 19.6738 27.327 20.0358 27.3635C20.3035 27.3905 20.58 27.3896 20.8269 27.3889C20.8985 27.3886 20.9677 27.3884 21.0334 27.3889C21.3428 27.3911 21.6191 27.4068 21.8921 27.4768Z" fill="#36B294" stroke="black"/>
<g opacity="0.4">
<path opacity="0.4" d="M50.0365 42.8359C50.0365 50.5623 55.5002 57.0096 62.7739 58.5333C67.9039 52.4441 71 44.5852 71 36C71 32.9866 70.6187 30.0623 69.9026 27.2723C68.6748 26.9714 67.3987 26.7943 66.0781 26.7943C57.2186 26.7943 50.0365 33.9763 50.0365 42.8359Z" fill="#FFFFF4"/>
</g>
<path d="M58.7642 38.3735C58.6584 38.3735 58.5732 38.288 58.5732 38.183V30.7457C58.5732 30.6408 58.6584 30.5552 58.7642 30.5552C58.8701 30.5552 58.9552 30.6407 58.9552 30.7457V38.183C58.9552 38.2881 58.8701 38.3735 58.7642 38.3735Z" fill="#674447" stroke="black"/>
<path d="M58.7641 33.9644C60.8916 33.9644 62.6163 32.2397 62.6163 30.1122C62.6163 28.9903 62.1484 26.6035 61.3721 24.4868C60.9854 23.4323 60.5347 22.4805 60.051 21.8021C59.547 21.0952 59.1052 20.8197 58.7641 20.8197V33.9644ZM58.7641 33.9644C56.6366 33.9644 54.9119 32.2397 54.9119 30.1122M58.7641 33.9644L54.9119 30.1122M54.9119 30.1122C54.9119 28.9903 55.3798 26.6035 56.1561 24.4867M54.9119 30.1122L56.1561 24.4867M56.1561 24.4867C56.5428 23.4322 56.9934 22.4804 57.4771 21.802M56.1561 24.4867L57.4771 21.802M57.4771 21.802C57.9811 21.0952 58.4229 20.8197 58.7641 20.8197L57.4771 21.802Z" fill="#43AB5F" stroke="black"/>
<path d="M57.9296 21.2623C58.2471 20.9505 58.5294 20.8197 58.7641 20.8197C59.1052 20.8197 59.547 21.0951 60.051 21.802C60.5347 22.4804 60.9853 23.4322 61.372 24.4867C62.1483 26.6035 62.6162 28.9903 62.6161 30.1122V30.1122C62.6161 31.7336 61.6144 33.1211 60.196 33.6894C61.0294 32.8764 61.5472 31.7416 61.5472 30.4842C61.5472 29.3043 61.0821 27.0023 60.3499 25.0058C59.9824 24.0036 59.535 23.0426 59.0215 22.3224C58.7181 21.8969 58.3537 21.5027 57.9296 21.2623Z" fill="#71BE63" stroke="black"/>
<g opacity="0.6">
<path opacity="0.6" d="M26.9106 18.3145L27.1973 18.3857L27.398 18.169C27.993 17.5264 28.8313 17.1224 29.7675 17.1224C31.3869 17.1224 32.7287 18.3104 32.9691 19.8624H24.343C24.5678 18.934 25.4042 18.2445 26.4017 18.2445C26.5671 18.2445 26.7336 18.2706 26.9106 18.3145Z" fill="white" stroke="black"/>
</g>
<g opacity="0.6">
<path opacity="0.6" d="M24.0311 9.38669C24.2488 8.61493 24.9581 8.04934 25.7996 8.04934C25.9417 8.04934 26.0858 8.07173 26.241 8.11031L26.5277 8.18162L26.7285 7.96479C27.2502 7.40131 27.9848 7.04761 28.8048 7.04761C30.2021 7.04761 31.3637 8.0572 31.6 9.38669H24.0311Z" fill="white" stroke="black"/>
</g>
<g opacity="0.6">
<path opacity="0.6" d="M53.1926 11.3085L52.9919 11.0918C52.5902 10.658 52.0258 10.3866 51.3966 10.3866L53.1926 11.3085ZM53.1926 11.3085L53.4793 11.2373M53.1926 11.3085L53.4793 11.2373M53.4793 11.2373C53.5991 11.2075 53.7065 11.1912 53.8102 11.1912C54.3944 11.1912 54.8938 11.555 55.0939 12.0685M53.4793 11.2373L55.0939 12.0685M55.0939 12.0685H49.2724M55.0939 12.0685H49.2724M49.2724 12.0685C49.4984 11.1045 50.3637 10.3867 51.3966 10.3866L49.2724 12.0685Z" fill="white" stroke="black"/>
</g>
<path d="M25.2635 32.093L25.2635 32.093C26.0961 32.406 26.9355 32.0434 27.5434 31.7266C27.7041 31.6429 27.8607 31.5553 28.0063 31.4739L28.0142 31.4694C28.1592 31.3883 28.2919 31.314 28.4184 31.2482C28.6864 31.1086 28.8631 31.0422 28.9786 31.029C28.981 31.03 28.985 31.0318 28.9906 31.0349C29.0179 31.0503 29.0653 31.0867 29.1347 31.1653C29.2429 31.288 29.3443 31.4391 29.4725 31.6302C29.5228 31.7052 29.5773 31.7864 29.6379 31.8744C30.018 32.4264 30.6222 33.2187 31.6869 33.2187C32.2251 33.2187 32.7067 33.1542 33.119 33.0964L33.1661 33.0898C33.57 33.0331 33.881 32.9894 34.16 32.9964C34.4323 33.0033 34.6389 33.0589 34.8249 33.1876C35.0178 33.3211 35.2339 33.5646 35.462 34.0277C35.4618 34.0278 35.4665 34.0395 35.4787 34.0751C35.4809 34.0813 35.4832 34.0881 35.4857 34.0954C35.4985 34.1327 35.5156 34.1828 35.5353 34.2357C35.5831 34.3637 35.6548 34.5335 35.7662 34.703C36.001 35.0602 36.4118 35.4062 37.0771 35.4062C37.6542 35.4062 38.0449 35.5249 38.3634 35.6912C38.6503 35.8411 38.8855 36.0305 39.1732 36.2621C39.2249 36.3037 39.2783 36.3467 39.334 36.3911C39.6886 36.6736 40.1052 36.983 40.679 37.2154C41.2541 37.4483 41.9603 37.5937 42.896 37.5937C43.9701 37.5937 44.5057 37.9979 45.1869 38.5119C45.2198 38.5368 45.253 38.5618 45.2867 38.5871C45.6554 38.8644 46.0789 39.1702 46.631 39.4008C47.0751 39.5863 47.5886 39.7179 48.2148 39.7636V42.4109C47.8949 42.4051 47.431 42.3965 46.8429 42.3854C45.6443 42.3626 43.9298 42.3292 41.8658 42.2862C37.7378 42.2003 32.2123 42.0764 26.6222 41.9247C21.0314 41.7729 15.3784 41.5932 10.9941 41.3958C8.80147 41.2971 6.93016 41.1941 5.54412 41.0881C4.85051 41.0351 4.28375 40.9818 3.86125 40.9286C3.64973 40.9019 3.47971 40.876 3.3507 40.8511C3.28631 40.8388 3.23572 40.8273 3.19745 40.8172C3.1785 40.8122 3.16409 40.8079 3.15361 40.8044C3.14284 40.8009 3.13854 40.7991 3.13912 40.7993C2.67826 40.6014 2.19639 40.2562 1.72272 39.8326C1.58048 38.5718 1.5 37.2947 1.5 36C1.5 33.4622 1.78743 30.9913 2.31629 28.6084C3.07248 28.3357 3.65312 27.8646 4.12929 27.4783C4.15952 27.4538 4.18933 27.4296 4.21874 27.4058C4.81026 26.9277 5.19995 26.6562 5.65514 26.6562C6.15273 26.6562 6.44731 26.7711 6.64783 26.9095C6.85966 27.0558 7.012 27.2578 7.18707 27.5244C7.2078 27.556 7.22933 27.5894 7.25176 27.6241C7.40111 27.8556 7.58976 28.1481 7.8426 28.3745C8.16533 28.6634 8.58039 28.8437 9.14652 28.8437C9.69542 28.8437 10.1478 28.649 10.5291 28.4212C10.7179 28.3083 10.8966 28.1827 11.0608 28.0654C11.0852 28.048 11.1092 28.0309 11.1329 28.0139C11.2736 27.9132 11.4034 27.8203 11.5364 27.734C11.8445 27.5342 12.1179 27.406 12.4123 27.3756C12.6975 27.3462 13.0607 27.4032 13.5539 27.6844L13.5539 27.6844C14.752 28.3673 15.6825 28.2076 16.3767 28.0885C16.4227 28.0806 16.4677 28.0729 16.5117 28.0656C16.8661 28.0068 17.0975 27.9876 17.3106 28.0465C17.5056 28.1004 17.75 28.2403 18.0586 28.6463L18.0586 28.6463C18.5437 29.2845 19.2082 29.4638 19.8359 29.5625C20.0202 29.5914 20.2 29.614 20.3787 29.6365C20.8384 29.6942 21.2909 29.7511 21.7947 29.9134L21.7947 29.9134C22.5413 30.154 22.9156 30.4798 23.3444 30.8636L23.3727 30.8889C23.8166 31.2865 24.3217 31.7389 25.2635 32.093Z" fill="#00A07D" stroke="black"/>
<path d="M46.8896 41.6455L47.3792 42.7019L15.5595 59.7441L15.2469 59.6703C14.9282 59.5951 14.4687 59.4866 13.9057 59.3533C12.8156 59.0953 11.3376 58.7446 9.74217 58.3636C4.69612 52.4452 1.60921 44.8078 1.50284 36.4467C13.5952 35.1226 22.9891 36.3913 30.3377 38.0035C33.0217 38.5924 35.4262 39.2253 37.6006 39.7976C38.4469 40.0204 39.2584 40.234 40.038 40.4322C42.6566 41.0982 44.9296 41.5953 46.8896 41.6455Z" fill="#94D75B" stroke="black"/>
<path d="M19.3705 36.2706C24.238 36.7278 28.4647 37.5521 32.1451 38.4196C34.1235 38.8859 35.9258 39.3598 37.594 39.7984C38.6897 40.0865 39.7276 40.3594 40.7195 40.6049C42.6729 41.0885 44.4278 41.4603 45.9983 41.595L44.368 42.8493L42.8842 43.4027C41.5265 43.3822 39.811 42.8937 37.6614 42.1243C36.707 41.7826 35.6807 41.391 34.5744 40.9688C34.4167 40.9086 34.2573 40.8478 34.0962 40.7864C32.8081 40.2954 31.4186 39.7698 29.9275 39.2439C26.8513 38.1588 23.3411 37.0711 19.3705 36.2706Z" fill="#B0EB81" stroke="black"/>
<path d="M24.337 17.7992L24.5471 18.1012L24.8979 17.9905C25.1513 17.9106 25.3963 17.8618 25.645 17.8618C26.8548 17.8618 27.864 18.721 28.0957 19.8625H13.1923C13.4239 18.721 14.4332 17.8618 15.643 17.8618C15.8917 17.8618 16.1367 17.9106 16.3901 17.9905L16.7409 18.1012L16.951 17.7992C17.7656 16.6282 19.1143 15.8613 20.644 15.8613C22.1737 15.8613 23.5224 16.6282 24.337 17.7992Z" fill="white" stroke="black"/>
<path d="M47.733 15.0323L47.9431 15.3342L48.2938 15.2237C48.574 15.1354 48.8469 15.0807 49.125 15.0807C50.4904 15.0807 51.6259 16.0645 51.8614 17.3619H35.4511C35.6866 16.0645 36.8221 15.0807 38.1875 15.0807C38.4656 15.0807 38.7385 15.1354 39.0187 15.2237L39.3694 15.3342L39.5795 15.0323C40.4786 13.7399 41.9672 12.8932 43.6562 12.8932C45.3453 12.8932 46.8339 13.7399 47.733 15.0323Z" fill="white" stroke="black"/>
<path d="M26.794 11.8932C27.0321 10.4693 28.2702 9.38403 29.7618 9.38403C30.0015 9.38403 30.239 9.42186 30.485 9.48301L30.7717 9.55431L30.9725 9.33748C31.7999 8.44382 32.968 7.88013 34.2735 7.88013C36.5969 7.88013 38.5104 9.63595 38.7592 11.8932H26.794Z" fill="white" stroke="black"/>
<path d="M36 70.5C22.2134 70.5 10.3231 62.4084 4.79884 50.7168C22.1913 50.618 33.3915 46.8444 42.8851 43.0666C44.091 42.5867 45.2677 42.1077 46.4246 41.6367C54.3602 38.406 61.3643 35.5545 70.489 35.4157C70.4952 35.6117 70.5 35.8045 70.5 36C70.5 55.0538 55.0538 70.5 36 70.5Z" fill="#71BE63" stroke="black"/>
<path d="M48.7151 42.7911C48.5577 42.7911 48.4309 42.6638 48.4309 42.5076V34.068C48.4309 33.9117 48.5576 33.7844 48.7151 33.7844C48.8726 33.7844 48.9992 33.9116 48.9992 34.068V42.5076C48.9992 42.664 48.8725 42.7911 48.7151 42.7911Z" fill="#674447" stroke="black"/>
<path d="M53.1535 33.3492C53.1535 35.8006 51.1662 37.7879 48.7148 37.7879C46.2634 37.7879 44.2762 35.8006 44.2762 33.3492C44.2762 32.0654 44.8097 29.3486 45.6921 26.9424C46.1319 25.7432 46.6457 24.6567 47.1996 23.8799C47.7738 23.0746 48.2927 22.7369 48.7148 22.7369C49.1369 22.7369 49.6559 23.0746 50.2301 23.8799C50.7839 24.6567 51.2978 25.7431 51.7376 26.9423C52.62 29.3485 53.1535 32.0653 53.1535 33.3492Z" fill="#43AB5F" stroke="black"/>
<path d="M53.1535 33.3493V33.3493C53.1535 35.3364 51.8476 37.0186 50.0472 37.5845C51.1232 36.665 51.8057 35.2989 51.8057 33.7714C51.8057 32.4432 51.2805 29.8392 50.4512 27.5778C50.0351 26.4432 49.5299 25.359 48.9521 24.5486C48.5902 24.0411 48.1576 23.5824 47.6568 23.323C48.05 22.9159 48.408 22.7369 48.7149 22.7369C49.137 22.7369 49.6559 23.0746 50.2301 23.8799C50.784 24.6567 51.2979 25.7431 51.7376 26.9423C52.6201 29.3486 53.1536 32.0654 53.1535 33.3493Z" fill="#71BE63" stroke="black"/>
<path d="M36 70.5C27.2121 70.5 19.209 67.1986 13.1202 61.7845C23.6386 60.6111 34.2196 55.0039 43.9806 49.6558C44.4489 49.3992 44.9154 49.1432 45.3799 48.8883C49.9455 46.3824 54.3215 43.9806 58.4454 42.1447C62.7747 40.2172 66.7767 38.937 70.3788 38.8029C68.9515 56.5446 54.1092 70.5 36 70.5Z" fill="#43AB5F" stroke="black"/>
<path d="M28.1456 62.3412C28.1456 62.5685 27.9614 62.7527 27.7341 62.7527C27.5069 62.7527 27.3226 62.5685 27.3226 62.3412C27.3226 62.1139 27.5069 61.9297 27.7341 61.9297C27.9614 61.9297 28.1456 62.1139 28.1456 62.3412Z" fill="#B0EB81" stroke="black"/>
<path d="M32.4011 51.6223C32.4011 51.8496 32.2169 52.0338 31.9896 52.0338C31.7624 52.0338 31.5781 51.8496 31.5781 51.6223C31.5781 51.3951 31.7624 51.2108 31.9896 51.2108C32.2169 51.2108 32.4011 51.3951 32.4011 51.6223Z" fill="#94D75B" stroke="black"/>
<path d="M57.0651 39.6517C57.0651 39.879 56.8808 40.0632 56.6536 40.0632C56.4263 40.0632 56.2421 39.879 56.2421 39.6517C56.2421 39.4245 56.4263 39.2402 56.6536 39.2402C56.8808 39.2402 57.0651 39.4245 57.0651 39.6517Z" fill="#94D75B" stroke="black"/>
<path d="M41.8481 63.7994C41.8481 64.0267 41.6639 64.2109 41.4366 64.2109C41.2094 64.2109 41.0251 64.0267 41.0251 63.7994C41.0251 63.5722 41.2094 63.3879 41.4366 63.3879C41.6639 63.3879 41.8481 63.5722 41.8481 63.7994Z" fill="#71BE63" stroke="black"/>
<path d="M46.7599 58.1484C46.7599 58.3757 46.5757 58.5599 46.3484 58.5599C46.1211 58.5599 45.9369 58.3757 45.9369 58.1484C45.9369 57.9212 46.1211 57.7369 46.3484 57.7369C46.5757 57.7369 46.7599 57.9212 46.7599 58.1484Z" fill="#B0EB81" stroke="black"/>
<path d="M36.4115 59.4448C36.4115 59.6721 36.2273 59.8563 36 59.8563C35.7727 59.8563 35.5885 59.6721 35.5885 59.4448C35.5885 59.2176 35.7727 59.0333 36 59.0333C36.2273 59.0333 36.4115 59.2176 36.4115 59.4448Z" fill="#71BE63" stroke="black"/>
<path d="M21.099 63.2526C21.099 63.4798 20.9147 63.6641 20.6875 63.6641C20.4602 63.6641 20.276 63.4798 20.276 63.2526C20.276 63.0253 20.4602 62.8411 20.6875 62.8411C20.9147 62.8411 21.099 63.0253 21.099 63.2526Z" fill="#71BE63" stroke="black"/>
<path d="M22.0105 55.5573C22.0105 55.7845 21.8263 55.9688 21.599 55.9688C21.3717 55.9688 21.1875 55.7845 21.1875 55.5573C21.1875 55.33 21.3717 55.1458 21.599 55.1458C21.8263 55.1458 22.0105 55.33 22.0105 55.5573Z" fill="#B0EB81" stroke="black"/>
<path d="M37.323 48.2135C37.323 48.4408 37.1388 48.625 36.9115 48.625C36.6842 48.625 36.5 48.4408 36.5 48.2135C36.5 47.9862 36.6842 47.802 36.9115 47.802C37.1388 47.802 37.323 47.9862 37.323 48.2135Z" fill="#B0EB81" stroke="black"/>
<path d="M14.5338 55.1013C14.5338 55.3286 14.3496 55.5128 14.1223 55.5128C13.895 55.5128 13.7108 55.3286 13.7108 55.1013C13.7108 54.8741 13.895 54.6898 14.1223 54.6898C14.3496 54.6898 14.5338 54.8741 14.5338 55.1013Z" fill="#94D75B" stroke="black"/>
<path d="M53.1537 54.1901C53.1537 54.4173 52.9694 54.6016 52.7422 54.6016C52.5149 54.6016 52.3307 54.4173 52.3307 54.1901C52.3307 53.9628 52.5149 53.7786 52.7422 53.7786C52.9694 53.7786 53.1537 53.9628 53.1537 54.1901Z" fill="#B0EB81" stroke="black"/>
<path d="M61.9782 51.6223C61.9782 51.8496 61.794 52.0338 61.5667 52.0338C61.3394 52.0338 61.1552 51.8496 61.1552 51.6223C61.1552 51.3951 61.3394 51.2108 61.5667 51.2108C61.794 51.2108 61.9782 51.3951 61.9782 51.6223Z" fill="#B0EB81" stroke="black"/>
<path d="M45.099 53.2786C45.099 53.5058 44.9148 53.6901 44.6875 53.6901C44.4602 53.6901 44.276 53.5058 44.276 53.2786C44.276 53.0513 44.4602 52.8671 44.6875 52.8671C44.9148 52.8671 45.099 53.0513 45.099 53.2786Z" fill="#71BE63" stroke="black"/>
<path d="M53.1537 60.2742C53.1537 60.5014 52.9694 60.6857 52.7422 60.6857C52.5149 60.6857 52.3307 60.5014 52.3307 60.2742C52.3307 60.0469 52.5149 59.8627 52.7422 59.8627C52.9694 59.8627 53.1537 60.0469 53.1537 60.2742Z" fill="#71BE63" stroke="black"/>
<path d="M55.9168 49.125C55.9168 49.3523 55.7325 49.5365 55.5053 49.5365C55.278 49.5365 55.0938 49.3523 55.0938 49.125C55.0938 48.8977 55.278 48.7135 55.5053 48.7135C55.7325 48.7135 55.9168 48.8977 55.9168 49.125Z" fill="#71BE63" stroke="black"/>
<path d="M61.9782 43.8314C61.9782 44.0587 61.794 44.2429 61.5667 44.2429C61.3394 44.2429 61.1552 44.0587 61.1552 43.8314C61.1552 43.6042 61.3394 43.4199 61.5667 43.4199C61.794 43.4199 61.9782 43.6042 61.9782 43.8314Z" fill="#71BE63" stroke="black"/>
</svg>
