<svg width="90" height="90" viewBox="0 0 90 90" fill="none" xmlns="http://www.w3.org/2000/svg">
<g clip-path="url(#clip0)">
<path d="M69.8534 50.7623C69.8534 53.5624 58.6981 56.1831 44.9368 56.1831C31.176 56.1831 20.0203 53.5624 20.0203 50.7623C20.0203 47.9626 31.176 45.693 44.9368 45.693C58.6981 45.693 69.8534 47.9626 69.8534 50.7623Z" fill="#525468"/>
<path d="M22.3627 50.7623C22.3627 48.0422 32.8908 45.823 46.1083 45.6985C45.7201 45.6948 45.3296 45.693 44.9368 45.693C31.176 45.693 20.0203 47.9626 20.0203 50.7623C20.0203 53.5624 31.176 56.1831 44.9368 56.1831C45.3296 56.1831 45.7201 56.1808 46.1083 56.1767C32.8908 56.0334 22.3627 53.4823 22.3627 50.7623Z" fill="#3E4151"/>
<path d="M69.8534 30.7759C69.8534 22.5371 58.6981 15.8588 44.9368 15.8588C31.176 15.8588 20.0203 22.5371 20.0203 30.7759C20.0203 39.0143 31.176 45.6931 44.9368 45.6931C58.6981 45.6931 69.8534 39.0143 69.8534 30.7759Z" fill="#E4E3E1"/>
<path d="M65.3563 32.893C65.3563 26.1415 56.2143 20.6685 44.9368 20.6685C33.6598 20.6685 24.5178 26.1415 24.5178 32.893C24.5178 39.6446 33.6598 45.1176 44.9368 45.1176C56.2143 45.1176 65.3563 39.6446 65.3563 32.893V32.893Z" fill="#D1D0CF"/>
<path d="M22.3627 30.7759C22.3627 22.7724 32.8908 16.2419 46.1083 15.8752C45.7201 15.8647 45.3296 15.8588 44.9368 15.8588C31.176 15.8588 20.0203 22.5371 20.0203 30.7759C20.0203 39.0143 31.176 45.6931 44.9368 45.6931C45.3296 45.6931 45.7201 45.6866 46.1083 45.6761C32.8908 45.3099 22.3627 38.779 22.3627 30.7759V30.7759Z" fill="#D1D0CF"/>
<path d="M26.8602 32.893C26.8602 26.3768 35.376 21.0525 46.1083 20.6891C45.7205 20.6758 45.3301 20.6685 44.9368 20.6685C33.6598 20.6685 24.5178 26.1415 24.5178 32.893C24.5178 39.6446 33.6598 45.1176 44.9368 45.1176C45.3301 45.1176 45.7205 45.1103 46.1083 45.097C35.376 44.7336 26.8602 39.4093 26.8602 32.893V32.893Z" fill="#AFAFAF"/>
<path d="M62.0439 54.6822C61.5088 53.384 60.2312 52.4698 58.7393 52.4698C58.7334 52.4698 58.7279 52.4703 58.7219 52.4703C58.9861 49.802 56.2125 47.8011 53.7575 48.9505C53.5739 49.0366 53.3533 48.9711 53.2475 48.7981C51.416 45.7952 46.9734 46.0428 45.4884 49.2302C45.3923 49.4358 45.1556 49.5319 44.94 49.4619C44.398 49.2852 43.8171 49.2504 43.2605 49.357C43.022 49.4033 42.7835 49.2801 42.692 49.0544C41.2871 45.5832 36.1967 46.0488 35.4552 49.7223C35.4117 49.937 35.1942 50.0666 34.986 49.9984C32.384 49.1446 29.7327 51.156 29.8146 53.8674C29.8228 54.1471 29.6695 54.4071 29.4122 54.5165C29.1962 54.608 28.9938 54.7243 28.8066 54.8603C38.4837 56.5348 52.8067 56.4579 62.0439 54.6822V54.6822Z" fill="#F6E1C6"/>
<path d="M31.4452 55.2177C31.6292 55.0772 31.8292 54.9563 32.043 54.8602C32.2975 54.7453 32.4458 54.4821 32.4312 54.2028C32.2911 51.4943 34.8985 49.4256 37.5183 50.2235C37.7275 50.2871 37.9427 50.153 37.9811 49.9374C38.2663 48.3494 39.3704 47.34 40.6535 46.9784C38.6275 46.1521 35.9743 47.1487 35.4547 49.7222C35.4117 49.9369 35.1938 50.0665 34.9855 49.9983C32.3836 49.1446 29.7327 51.156 29.8146 53.8673C29.8228 54.1465 29.669 54.407 29.4118 54.516C29.1962 54.6075 28.9934 54.7242 28.8066 54.8602C30.5109 55.155 29.5056 55.0309 31.4452 55.2177V55.2177Z" fill="#E2C8AC"/>
<path d="M45.7773 49.4041C46.3312 49.2851 46.9125 49.3075 47.4586 49.4723C47.6756 49.5378 47.91 49.4366 48.0016 49.2293C48.539 48.007 49.5131 47.2005 50.6177 46.831C48.679 46.3257 46.4557 47.1533 45.488 49.2302C45.4678 49.2741 45.4399 49.3117 45.4083 49.3446C45.5164 49.4078 45.6468 49.4321 45.7773 49.4041V49.4041Z" fill="#E2C8AC"/>
<path d="M44.9368 55.8321C31.176 55.8321 20.0203 53.5625 20.0203 50.7628V66.1098C20.0203 68.9095 31.176 71.179 44.9368 71.179C58.6981 71.179 69.8534 68.9095 69.8534 66.1098V50.7623C69.8534 53.5625 58.6981 55.8321 44.9368 55.8321V55.8321Z" fill="#E4E3E1"/>
<path d="M22.3627 52.9102C20.8612 52.2583 20.0203 51.5305 20.0203 50.7623V66.1098C20.0203 66.8774 20.8612 67.6053 22.3627 68.2576V52.9102Z" fill="#D1D0CF"/>
<path d="M44.9368 60.0901C31.176 60.0901 20.0203 57.8206 20.0203 55.0209V62.0352C20.0203 64.8349 31.176 67.1045 44.9368 67.1045C58.6981 67.1045 69.8534 64.8349 69.8534 62.0352V55.0209C69.8534 57.8206 58.6981 60.0901 44.9368 60.0901V60.0901Z" fill="#FFC964"/>
<path d="M20.0203 62.0352C20.0203 62.8029 20.8612 63.5307 22.3627 64.183V57.1687C20.8612 56.5164 20.0203 55.7885 20.0203 55.0209V62.0352Z" fill="#F3A334"/>
<path d="M71.0019 67.7385L69.8534 65.9926C69.8534 68.7922 58.6981 71.0623 44.9368 71.0623C31.176 71.0623 20.0203 68.7922 20.0203 65.9926L18.9807 67.9893C18.6301 68.6618 18.8681 69.4944 19.5259 69.8721C29.7606 75.7502 62.3003 75.3703 70.6503 69.5851C71.2152 69.1937 71.3905 68.3175 71.0019 67.7385Z" fill="#D1D0CF"/>
<path d="M21.5863 69.6578L22.3741 68.1454C20.8653 67.4917 20.0203 66.762 20.0203 65.9921L18.9807 67.9888C18.6305 68.6617 18.8686 69.4944 19.5259 69.8721C20.1192 70.2126 20.7884 70.5322 21.5222 70.8311C21.3785 70.4621 21.3904 70.035 21.5863 69.6578V69.6578Z" fill="#AFAFAF"/>
<path d="M19.1327 50.7825V65.7971L18.1924 67.6035C17.6212 68.7003 18.0107 70.0401 19.0791 70.6535C29.577 76.6832 62.5012 76.3133 71.1415 70.3267C72.0978 69.6643 72.3697 68.2379 71.7247 67.2725L70.7227 65.7495C70.7227 62.5992 70.7227 53.9149 70.7227 50.7825C70.7227 46.9203 59.1902 45.645 55.2457 45.2834C57.6517 44.6452 59.8997 43.7828 61.9034 42.7153C66.6637 40.1775 69.722 36.6632 70.5148 32.8194C70.6123 32.3442 70.307 31.8796 69.8318 31.7821C69.3562 31.6837 68.8921 31.9894 68.7941 32.4646C68.1917 35.3856 66.0004 38.1262 62.5644 40.3006C64.9461 38.1505 66.2251 35.6017 66.2251 32.9128C66.2251 26.1566 58.0074 20.5527 47.1098 19.8775C46.6241 19.8463 46.2085 20.2153 46.1787 20.6996C46.1485 21.1839 46.517 21.6005 47.0009 21.6307C56.862 22.2418 64.4687 27.1614 64.4687 32.9128C64.4687 35.8571 62.4962 38.6591 58.9151 40.8032C46.4543 48.2629 25.3871 42.8032 25.3871 32.9128C25.3871 27.1184 33.0954 22.1906 43.0064 21.622C43.4908 21.5941 43.8611 21.1789 43.8332 20.695C43.8052 20.2103 43.39 19.8413 42.9062 19.8683C26.087 20.8328 18.5738 32.4312 27.291 40.3001C23.1583 37.6868 20.8896 34.3272 20.8896 30.7956C20.8896 23.0315 31.815 16.7569 44.9277 16.7569C56.7549 16.7569 66.9791 21.9164 68.7103 28.7585C68.8293 29.2287 69.3072 29.5134 69.7774 29.3944C70.2475 29.2758 70.5322 28.7979 70.4132 28.3278C68.4457 20.5513 57.5217 15 44.9277 15C30.9238 15 19.1327 21.8454 19.1327 30.7956C19.1327 35.1013 21.8765 39.115 26.8579 42.0973C29.1284 43.4564 31.7459 44.5294 34.5882 45.2852C30.7397 45.639 19.1327 46.9075 19.1327 50.7825V50.7825ZM20.8896 53.1752C28.5773 57.7858 60.9608 57.9762 68.9662 53.1752V55.0401C68.9662 55.4247 67.7815 56.6638 62.3712 57.7643C57.7212 58.7105 51.5263 59.2314 44.9277 59.2314C29.4145 59.2314 20.8896 56.478 20.8896 55.0401V53.1752ZM20.8896 57.4338C28.7613 62.1552 61.1238 62.1373 68.9662 57.4338V62.0549C68.9662 62.439 67.7815 63.6781 62.3712 64.7786C57.7212 65.7248 51.5259 66.2457 44.9277 66.2457C29.5999 66.2457 20.8896 63.5321 20.8896 62.0549V57.4338ZM20.8896 64.4476C28.7476 69.1617 61.106 69.1626 68.9662 64.4476V66.0123C68.9662 66.3968 67.7815 67.6355 62.3712 68.7364C52.7435 70.6952 37.1072 70.6943 27.4841 68.7364C22.0743 67.6355 20.8896 66.3968 20.8896 66.0123V64.4476ZM69.9069 67.706C69.9074 67.706 70.2635 68.2475 70.2635 68.2475C70.3812 68.4233 70.3162 68.7616 70.1408 68.8829C62.1693 74.4058 30.0073 74.9043 19.9539 69.1301C19.7054 68.9873 19.6161 68.6732 19.7507 68.4146L20.0642 67.8122C26.0925 73.1447 63.8512 73.4875 69.9069 67.706V67.706ZM68.9662 50.7825C68.9662 50.9024 68.8504 51.1061 68.5263 51.3625C67.8218 51.9205 66.1317 52.7284 62.5095 53.4773C61.8562 52.4245 60.7988 51.6943 59.5866 51.459C59.3083 48.7051 56.4546 46.8127 53.7602 47.7818C53.5121 47.4358 53.2283 47.1277 52.9175 46.8581C63.8878 47.6175 68.9662 49.7264 68.9662 50.7825V50.7825ZM44.9277 46.5907C45.4042 46.5907 45.8784 46.5939 46.3504 46.5994C45.7425 47.0439 45.2298 47.623 44.8503 48.3138C44.3683 48.2021 43.8679 48.1746 43.3754 48.2346C43.0687 47.5905 42.6379 47.0467 42.1193 46.6232C43.0449 46.6022 43.9819 46.5907 44.9277 46.5907ZM36.3066 49.6815C36.6211 48.1247 37.8484 47.4664 38.893 47.3694C39.939 47.2723 41.2711 47.6935 41.8684 49.1698C42.1156 49.7791 42.767 50.1306 43.4171 50.0052C43.8304 49.9255 44.2598 49.9521 44.659 50.0826C45.2989 50.2904 45.9933 49.9915 46.2753 49.3863C47.466 46.8306 51.0205 46.6338 52.4886 49.0407C52.8278 49.5973 53.5295 49.8079 54.1205 49.5314C55.9511 48.674 58.0371 50.1672 57.8389 52.169C57.8146 52.4158 57.8957 52.6616 58.0618 52.8452C58.2285 53.0292 58.4651 53.134 58.7128 53.134C58.7219 53.134 58.7311 53.1335 58.7407 53.1335C59.4282 53.1358 60.0687 53.3963 60.553 53.8412C51.8925 55.2864 39.554 55.3404 30.6404 54.0486C30.6729 53.9131 30.6876 53.7717 30.6834 53.6266C30.6194 51.5167 32.6802 49.9544 34.7031 50.6181C35.0391 50.7285 35.4076 50.69 35.7133 50.5119C36.02 50.3334 36.2361 50.0308 36.3066 49.6815V49.6815ZM35.8589 46.9386C35.3467 47.4477 34.9535 48.0807 34.7214 48.8072C31.7134 48.1764 28.9137 50.5316 28.9252 53.5533C28.8176 53.6041 28.7119 53.66 28.6084 53.7209C26.6968 53.3771 22.8557 52.5714 21.3295 51.3625C21.0054 51.1061 20.8896 50.9024 20.8896 50.7825C20.8896 50.3979 22.0743 49.1588 27.4841 48.0583C29.9094 47.5648 32.7553 47.1872 35.8589 46.9386V46.9386Z" fill="black"/>
</g>
<g clip-path="url(#clip1)">
<path d="M45 1.33691C20.885 1.33691 1.33691 20.885 1.33691 45C1.33691 69.115 20.885 88.6631 45 88.6631C69.115 88.6631 88.6631 69.115 88.6631 45C88.6631 20.885 69.115 1.33691 45 1.33691V1.33691ZM9.19077 45C9.19077 32.8642 15.2291 22.1395 24.4645 15.6631L58.6471 78.1142C54.4414 79.8493 49.8326 80.8093 45 80.8093C25.2233 80.8093 9.19077 64.7768 9.19077 45V45ZM65.5341 74.3376L31.3516 11.8865C35.558 10.1507 40.1667 9.19077 45 9.19077C64.7768 9.19077 80.8072 25.2233 80.8072 45C80.8072 57.1365 74.7695 67.8612 65.5341 74.3376V74.3376Z" fill="#FF5A73"/>
<path d="M24.7673 14.3619C25.1381 14.4484 25.4539 14.6881 25.6366 15.0218L59.8206 77.4729C60.0025 77.8059 60.0348 78.2007 59.9078 78.5592C59.7814 78.9176 59.5088 79.2053 59.1579 79.3502C54.6625 81.2055 49.8992 82.1462 45 82.1462C32.2545 82.1462 20.5437 75.7247 13.6725 64.9691C13.2756 64.347 13.4576 63.5202 14.0797 63.1227C14.7018 62.7258 15.5285 62.9078 15.9254 63.5299C22.3029 73.513 33.1718 79.4731 45 79.4731C49.0443 79.4731 52.9871 78.783 56.7437 77.4193L52.0292 68.8074L44.0751 54.2746L34.3391 36.4891L24.0244 17.6441C15.5457 24.1555 10.5276 34.2719 10.5276 45C10.5276 49.8793 11.526 54.5932 13.4946 59.011C13.7954 59.6853 13.4926 60.475 12.8183 60.7757C12.144 61.0765 11.3537 60.7737 11.0529 60.0994C8.93051 55.3368 7.85385 50.2563 7.85385 45C7.85385 32.902 13.7762 21.5257 23.6968 14.5693C24.0079 14.3509 24.3972 14.2754 24.7673 14.3619Z" fill="black"/>
<path d="M65.217 75.7843C64.8463 75.6978 64.5304 75.4582 64.3477 75.1245L30.1638 12.6734C29.9818 12.3403 29.9495 11.9455 30.0766 11.5871C30.2029 11.2287 30.4755 10.941 30.8264 10.7961C35.3219 8.94075 40.0851 8.00005 44.9843 8.00005C57.7299 8.00005 69.4406 14.4216 76.3119 25.1772C76.7087 25.7993 76.5268 26.626 75.9047 27.0236C75.2826 27.4204 74.4559 27.2385 74.059 26.6164C67.6814 16.6332 56.8125 10.6732 44.9843 10.6732C40.94 10.6732 36.9973 11.3632 33.2406 12.7269L37.9551 21.3388L45.9093 35.8717L55.6452 53.6572L65.96 72.5022C74.4387 65.9907 79.4567 55.8743 79.4567 45.1462C79.4567 40.2669 78.4583 35.5531 76.4897 31.1352C76.1889 30.4609 76.4918 29.6713 77.166 29.3705C77.8403 29.0698 78.6307 29.3726 78.9314 30.0469C81.0538 34.8094 82.1305 39.8899 82.1305 45.1462C82.1305 57.2442 76.2082 68.6205 66.2875 75.577C65.9765 75.7953 65.5871 75.8708 65.217 75.7843Z" fill="black"/>
<path d="M76.8198 13.1802C68.3205 4.68086 57.0197 0 45 0C32.9803 0 21.6795 4.68086 13.1802 13.1802C4.68086 21.6795 0 32.9803 0 45C0 57.0197 4.68086 68.3205 13.1802 76.8198C21.6795 85.3191 32.9803 90 45 90C57.0197 90 68.3205 85.3191 76.8198 76.8198C85.3191 68.3205 90 57.0197 90 45C90 32.9803 85.3191 21.6795 76.8198 13.1802V13.1802ZM74.9295 74.9295C66.9349 82.9241 56.3056 87.3269 45 87.3269C33.6944 87.3269 23.0651 82.9241 15.0705 74.9295C7.07588 66.9349 2.67311 56.3056 2.67311 45C2.67311 33.6944 7.07588 23.0651 15.0705 15.0705C23.0651 7.07588 33.6944 2.67311 45 2.67311C56.3056 2.67311 66.9349 7.07588 74.9295 15.0705C82.9241 23.0651 87.3269 33.6944 87.3269 45C87.3269 56.3056 82.9241 66.9349 74.9295 74.9295Z" fill="black"/>
</g>
<defs>
<clipPath id="clip0">
<rect width="60" height="60" fill="white" transform="translate(15 15)"/>
</clipPath>
<clipPath id="clip1">
<rect width="90" height="90" fill="white"/>
</clipPath>
</defs>
</svg>
